<?xml version="1.0" standalone="no"?>
<!DOCTYPE svg PUBLIC "-//W3C//DTD SVG 1.1//EN" "http://www.w3.org/Graphics/SVG/1.1/DTD/svg11.dtd" >
<svg xmlns="http://www.w3.org/2000/svg" xmlns:xlink="http://www.w3.org/1999/xlink" version="1.1">
<metadata>
Created by FontForge 20161013 at Thu May 21 08:46:44 2015
 By ,,,
</metadata>
<defs>
<font id="FashionBoutique" horiz-adv-x="331" >
  <font-face 
    font-family="Fashion Boutique"
    font-weight="400"
    font-stretch="normal"
    units-per-em="1000"
    panose-1="2 0 5 6 0 0 0 2 0 4"
    ascent="800"
    descent="-200"
    x-height="700"
    cap-height="700"
    bbox="-278 -239 1113 874"
    underline-thickness="50"
    underline-position="-150"
    unicode-range="U+0020-2122"
  />
<missing-glyph horiz-adv-x="202" 
 />
    <glyph glyph-name=".notdef" horiz-adv-x="202" 
 />
    <glyph glyph-name=".null" horiz-adv-x="0" 
 />
    <glyph glyph-name="nonmarkingreturn" horiz-adv-x="333" 
 />
    <glyph glyph-name="space" unicode=" " horiz-adv-x="301" 
 />
    <glyph glyph-name="exclam" unicode="!" horiz-adv-x="107" 
d="M0 700h33l-1 -525h-32v525v0zM0 79h32l1 -79h-33v79v0z" />
    <glyph glyph-name="quotedbl" unicode="&#x22;" horiz-adv-x="168" 
d="M0 742h32v-78h-32v78v0zM61 742h32v-78h-32v78v0z" />
    <glyph glyph-name="numbersign" unicode="#" horiz-adv-x="304" 
d="M231 558v-32h-57v-58h-33v58h-56v-58h-32v58h-53v33h53v56h-54v32h54v52h33v-52h55v53h33v-53h56v-32h-56v-57h57v0zM86 558h55v57h-55v-57v0z" />
    <glyph glyph-name="dollar" unicode="$" horiz-adv-x="445" 
d="M200 442q32 -19 62.5 -38t54.5 -42.5t38.5 -55t14.5 -74.5q0 -36 -13 -68.5t-36 -57t-54 -40.5t-67 -19v-48h-28v47q-32 3 -60.5 15.5t-51.5 32.5t-38.5 46.5t-21.5 58.5l27 5q11 -55 50.5 -89.5t94.5 -40.5v353q-17 11 -34 21.5t-30.5 23.5t-21.5 30t-8 41
q0 20 7.5 37.5t20.5 31.5t30 23.5t36 12.5v52h28v-51q35 -4 61.5 -27.5t34.5 -58.5l-28 -6q-5 26 -23.5 42.5t-44.5 21.5v-179v0zM106 543q0 -18 5.5 -30t14.5 -21t21 -16.5t25 -15.5v160q-29 -5 -47.5 -26.5t-18.5 -50.5zM200 75q29 0 55 14.5t45.5 37t30.5 50.5t11 56
q0 37 -12 63t-32 45.5t-45.5 35t-52.5 32.5v-334v0z" />
    <glyph glyph-name="percent" unicode="%" horiz-adv-x="892" 
d="M490 700h42l-492 -699h-40zM169 598q0 21 8 39.5t22 32.5t32.5 22t39.5 8t39.5 -8t32.5 -22t22 -32.5t8 -39.5t-8 -39.5t-22 -32.5t-32.5 -22t-39.5 -8t-39.5 8t-32.5 22t-22 32.5t-8 39.5zM202 598q0 -29 20 -49t49 -20t49 20t20 49t-20 49t-49 20t-49 -20t-20 -49z
M302 259q0 53 20.5 100t55.5 82t82 55.5t100 20.5t100 -20.5t82.5 -55.5t56 -82t20.5 -100t-20.5 -100.5t-56 -82.5t-82.5 -55.5t-100 -20.5t-100 20.5t-82 55.5t-55.5 82.5t-20.5 100.5zM334 259q0 -47 18 -88t48.5 -72t71.5 -49t88 -18q46 0 87.5 18t72.5 49t49 72t18 88
t-18 88t-49 72t-72.5 48.5t-87.5 17.5q-47 0 -88 -18t-71.5 -48.5t-48.5 -72t-18 -87.5z" />
    <glyph glyph-name="ampersand" unicode="&#x26;" horiz-adv-x="586" 
d="M512 256q0 -51 -20 -97.5t-54.5 -81.5t-81 -56t-100.5 -21q-51 0 -97.5 19.5t-81.5 54t-56 81.5t-21 101q0 42 14 81.5t38.5 72t59 57t76.5 36.5q-20 12 -31 37.5t-11 49.5q0 46 32 78q34 32 78 32q45 0 78 -33l-23 -23q-23 23 -55 23q-31 0 -55 -22q-11 -11 -17 -25.5
t-6 -29.5q0 -16 6 -30t17 -25t25.5 -16.5t29.5 -5.5v-33q-44 0 -84.5 -17.5t-71.5 -48t-49.5 -71.5t-18.5 -87q0 -45 17.5 -85.5t47.5 -71t71 -49t88 -18.5q46 0 86 17.5t70 48t48 71t20 87.5h-220v32h252v-32z" />
    <glyph glyph-name="quotesingle" unicode="'" horiz-adv-x="107" 
d="M32 742v-78h-32v78h32z" />
    <glyph glyph-name="parenleft" unicode="(" horiz-adv-x="250" 
d="M177 700q-72 -72 -108 -163.5t-36 -186.5t36.5 -186.5t108.5 -163.5h-45q-66 75 -99.5 165.5t-33.5 184.5t33.5 184.5t99.5 165.5h44z" />
    <glyph glyph-name="parenright" unicode=")" horiz-adv-x="250" 
d="M-1 0q72 72 108 163t36 186t-36.5 186.5t-108.5 163.5l44 1q67 -75 100.5 -166t33.5 -185t-33.5 -184.5t-99.5 -164.5h-44z" />
    <glyph glyph-name="asterisk" unicode="*" horiz-adv-x="309" 
d="M234 599v-32h-79l78 -78h-46l-54 54v-77h-32v77l-54 -54h-46l77 77h-77v33h76l-77 77h46l55 -55v79h32v-79l55 55h46l-77 -77h77v0z" />
    <glyph glyph-name="plus" unicode="+" horiz-adv-x="306" 
d="M232 273v-32h-98v-102h-33l1 102h-102v32h102v98h32v-98h98v0z" />
    <glyph glyph-name="comma" unicode="," horiz-adv-x="124" 
d="M-35 -69q35 35 37 85l32 -1q0 -64 -46 -107l-23 23v0z" />
    <glyph glyph-name="hyphen" unicode="-" horiz-adv-x="326" 
d="M252 241h-252v32h252v-32z" />
    <glyph glyph-name="period" unicode="." horiz-adv-x="105" 
d="M0 79h33v-79h-33v79v0z" />
    <glyph glyph-name="slash" unicode="/" horiz-adv-x="365" 
d="M1 0l255 700h34l-254 -700h-35v0z" />
    <glyph glyph-name="zero" unicode="0" horiz-adv-x="773" 
d="M0 350q0 72 27.5 136t75 111.5t111.5 75t136 27.5t136 -27.5t111.5 -75t75 -111.5t27.5 -136t-27.5 -136t-75 -111.5t-111.5 -75t-136 -27.5t-136 27.5t-111.5 75t-75 111.5t-27.5 136zM32 350q0 -66 25 -123.5t68.5 -101t101 -68.5t123.5 -25t123.5 25t101 68.5
t68.5 101t25 123.5t-25 123.5t-68.5 101t-101 68.5t-123.5 25t-123.5 -25t-101 -68.5t-68.5 -101t-25 -123.5z" />
    <glyph glyph-name="one" unicode="1" horiz-adv-x="253" 
d="M178 32v-32h-178v32h73v602q-9 -8 -18.5 -15t-17.5 -13q-10 -7 -18 -14l-20 26l106 82v-668h73z" />
    <glyph glyph-name="two" unicode="2" horiz-adv-x="423" 
d="M86 598q5 24 19 44.5t34 34.5t44.5 20t51.5 1q45 -8 75 -41t30 -81q0 -30 -14.5 -56.5t-40.5 -45.5l-86 -54l-86 -54q-64 -43 -78 -119q-3 -17 -3 -34v-181h317v-32h-349v213q0 19 3 40q8 43 31.5 79t60.5 61q5 3 20 12.5t34 21t40 25t38 24t28.5 18l11.5 7.5
q18 12 29.5 31.5t11.5 43.5q0 32 -22.5 58.5t-55.5 31.5q-38 7 -70 -14t-41 -60l-33 6v0z" />
    <glyph glyph-name="three" unicode="3" horiz-adv-x="588" 
d="M325 504q42 -11 77 -35t59.5 -57t38.5 -73t14 -83q0 -53 -20 -100t-55 -81.5t-82 -54.5t-100 -20t-99.5 20t-81.5 55t-55.5 81.5t-20.5 99.5h32q0 -47 18 -87.5t48.5 -71t71.5 -48t87 -17.5t87 17.5t71.5 48t48.5 71t18 87.5q0 46 -17.5 87t-48.5 72t-72 49t-87 17v32
q15 -2 29 4.5t24.5 18t17 26t6.5 28.5q0 32 -22.5 54.5t-54.5 22.5q-31 0 -54 -23l-24 24q32 32 78 32q22 0 42 -9t35 -24t24 -35t9 -42q0 -53 -42 -86z" />
    <glyph glyph-name="four" unicode="4" horiz-adv-x="462" 
d="M355 515h32v-515h-32v116h-355l356 584h39q-85 -139 -168 -276.5t-170 -274.5h298v366z" />
    <glyph glyph-name="five" unicode="5" horiz-adv-x="610" 
d="M374 700v-32h-111l-64 -132h69q55 0 104 -21t85.5 -57.5t57.5 -85.5t21 -104q0 -56 -21 -104.5t-57.5 -85t-85.5 -57.5t-104 -21q-56 0 -104.5 21t-85 57.5t-57.5 85t-21 104.5h33q0 -48 18.5 -91t50.5 -75.5t74.5 -51t91.5 -18.5t91.5 18.5t74.5 50.5t50.5 75t18.5 92
t-18.5 92t-50 74.5t-74.5 50t-92 18.5h-121l96 197h131z" />
    <glyph glyph-name="six" unicode="6" horiz-adv-x="605" 
d="M266 532q55 0 103.5 -21t84.5 -57t57 -84.5t21 -103.5t-21 -103.5t-57 -84.5t-84.5 -57t-103.5 -21t-103.5 21t-84.5 57t-57 84.5t-21 103.5q0 60 22 106.5t64 88.5l239 239h46l-179 -179q38 11 74 11zM266 32q48 0 90.5 18.5t74.5 50.5t50.5 74.5t18.5 90.5t-18.5 90.5
t-50.5 74t-74.5 50t-90.5 18.5q-47 0 -89 -18t-74 -49.5t-51 -74t-19 -91.5q0 -48 18.5 -90.5t50 -74.5t74 -50.5t90.5 -18.5z" />
    <glyph glyph-name="seven" unicode="7" horiz-adv-x="600" 
d="M226 700h303l-490 -700h-39q118 168 234.5 333t232.5 334h-241v33z" />
    <glyph glyph-name="eight" unicode="8" horiz-adv-x="605" 
d="M331 524q44 -11 81 -36t63.5 -59t41.5 -76t15 -87q0 -55 -21 -103.5t-57 -84.5t-84.5 -57t-103.5 -21t-103.5 21t-84.5 57t-57 84.5t-21 103.5q0 45 15 87t41.5 76t63.5 59t81 36q-17 14 -26 34t-9 42q0 21 7.5 39t21 31.5t32 21.5t39.5 8q42 0 71 -29t29 -71
q0 -22 -9.5 -42t-25.5 -34zM266 668q-28 0 -48 -20t-20 -48t20 -47.5t48 -19.5t47.5 19.5t19.5 47.5t-19.5 48t-47.5 20zM266 33q48 0 90.5 18.5t74.5 50t50.5 74t18.5 90.5t-18.5 90.5t-50.5 74.5t-74.5 50.5t-90.5 18.5t-90.5 -18.5t-74.5 -50.5t-50.5 -74.5t-18.5 -90.5
t18.5 -90.5t50.5 -74t74.5 -50t90.5 -18.5z" />
    <glyph glyph-name="nine" unicode="9" horiz-adv-x="605" 
d="M532 435q0 -56 -21.5 -104.5t-60.5 -87.5l-243 -243h-46l179 179q-34 -10 -74 -10q-55 0 -103.5 21t-84.5 57t-57 84.5t-21 103.5t21 103t57.5 84t85 57t102.5 21t102.5 -21t85 -57t57.5 -84t21 -103zM266 201q48 0 90.5 18.5t74 50t50 74.5t18.5 91t-18.5 90t-50.5 74
t-74 50.5t-90 18.5t-90.5 -18.5t-74 -50t-50 -74t-18.5 -90.5t18.5 -90.5t50 -74.5t74 -50.5t90.5 -18.5z" />
    <glyph glyph-name="colon" unicode=":" horiz-adv-x="109" 
d="M0 217h34l1 -80h-35v80v0zM0 369h34v-78h-34v78v0z" />
    <glyph glyph-name="semicolon" unicode=";" horiz-adv-x="109" 
d="M-35 -69q35 35 37 85l32 -1q0 -64 -46 -107l-23 23v0zM34 136l1 -78h-33v79z" />
    <glyph glyph-name="less" unicode="&#x3c;" horiz-adv-x="236" 
d="M138 391l24 -23l-116 -116l116 -116l-23 -23l-139 139z" />
    <glyph glyph-name="equal" unicode="=" horiz-adv-x="306" 
d="M232 318v-33h-232v33h232v0zM232 231v-33h-232v33h232v0z" />
    <glyph glyph-name="greater" unicode="&#x3e;" horiz-adv-x="238" 
d="M24 391l139 -139l-139 -139l-22 23q27 27 50 51l38.5 38.5l26.5 26.5l-116 116z" />
    <glyph glyph-name="question" unicode="?" horiz-adv-x="369" 
d="M32 78v-78h-32v79zM295 435q0 -54 -20.5 -102t-56 -84t-83.5 -57t-103 -21v-47h-32v80h32q48 0 89.5 18t73 49.5t49.5 73.5t18 90t-18 90t-49.5 73.5t-73.5 50t-90 18.5v33q54 0 102 -21t84 -57t57 -84t21 -103z" />
    <glyph glyph-name="at" unicode="@" horiz-adv-x="775" 
d="M352 703q73 0 137 -27.5t111.5 -75t75 -111.5t27.5 -137q0 -70 -25.5 -133t-74.5 -113l-4 -5h-11q-25 0 -46.5 9.5t-37.5 25.5t-25.5 37.5t-9.5 46.5v22q-23 -32 -59.5 -52t-80.5 -20q-36 0 -67.5 13.5t-55 37t-37 55t-13.5 67.5t13.5 67.5t37 55t55 37t67.5 13.5
q44 0 80.5 -19.5t59.5 -52.5v72h32v-296q0 -35 24 -59.5t59 -26.5q42 45 64.5 100.5t22.5 117.5q0 66 -25 124t-68.5 101.5t-101.5 68.5t-124 25t-124 -25t-101.5 -68.5t-68.5 -101.5t-25 -124t25 -124t68.5 -101.5t101.5 -68.5t124 -25v-33q-73 0 -137 27.5t-112 75.5
t-75.5 112t-27.5 137t27.5 137t75.5 111.5t112 75t137 27.5zM329 203q28 0 53 10.5t44 29t30.5 43t12.5 52.5v10q-1 28 -12.5 53t-30.5 43.5t-44 29t-53 10.5q-29 0 -55 -11t-45 -30t-30 -45t-11 -55t11 -54.5t30 -44.5t45 -30t55 -11z" />
    <glyph glyph-name="A" unicode="A" horiz-adv-x="580" 
d="M430 102h-359l-36 -102h-35l250 701l251 -701h-35zM418 134q-42 118 -84 235.5t-84 235.5q-45 -118 -85.5 -235.5t-82.5 -235.5h336z" />
    <glyph glyph-name="B" unicode="B" horiz-adv-x="367" 
d="M98 519q44 -11 80.5 -36t62.5 -59t40.5 -75.5t14.5 -86.5q0 -54 -21 -102t-57 -84t-84 -56.5t-102 -20.5h-32v701h32q21 0 40 -8t33 -22t22 -33t8 -40q0 -23 -10 -43.5t-27 -34.5zM103 597q0 29 -21 50t-50 21v-140q29 0 50 20t21 49zM32 31q47 0 89.5 18t74 49.5
t50 73.5t18.5 90t-18.5 90t-50 74t-73.5 50.5t-90 18.5v-464v0z" />
    <glyph glyph-name="C" unicode="C" horiz-adv-x="422" 
d="M0 350q0 72 27.5 136t75 111.5t111.5 75t136 27.5v-32q-66 0 -123.5 -25t-101 -68.5t-68.5 -101t-25 -123.5t25 -123.5t68.5 -101t101 -68.5t123.5 -25v-32q-72 0 -136 27.5t-111.5 75t-75 111.5t-27.5 136z" />
    <glyph glyph-name="D" unicode="D" horiz-adv-x="457" 
d="M382 350q0 -72 -27.5 -136t-75 -111.5t-111 -75t-135.5 -27.5h-33v700h32q72 0 136 -27.5t111.5 -75t75 -111.5t27.5 -136zM33 32q65 0 123 25.5t101 68.5t68 100.5t25 123.5t-25 123.5t-68.5 100.5t-101 68t-123.5 25l1 -635v0z" />
    <glyph glyph-name="E" unicode="E" 
d="M256 667h-223v-534h142v-32h-142v-68h219v-33h-252v700l256 -1v-32v0z" />
    <glyph glyph-name="F" unicode="F" 
d="M256 668h-224v-535h143v-33h-143v-100h-32v700h256v-32v0z" />
    <glyph glyph-name="G" unicode="G" horiz-adv-x="455" 
d="M382 0h-32q-72 0 -136 27.5t-111.5 75t-75 111.5t-27.5 136t27.5 136t75 111.5t111.5 75t136 27.5v-32q-66 0 -123.5 -25t-101 -68.5t-68.5 -101t-25 -123.5t25 -123.5t68 -100.5t101 -68.5t123 -25.5v69h-42v33h75v-134z" />
    <glyph glyph-name="H" unicode="H" horiz-adv-x="357" 
d="M251 0v101h-218v-101h-33v700h33v-567h218v567h32v-700h-32v0z" />
    <glyph glyph-name="I" unicode="I" horiz-adv-x="253" 
d="M178 32v-32h-178v32h73v635h-73v33h178v-33h-73v-635h73v0z" />
    <glyph glyph-name="J" unicode="J" horiz-adv-x="423" 
d="M350 350q0 -72 -27.5 -136t-75 -111.5t-111.5 -75t-136 -27.5v33q66 0 123.5 25t100.5 68t68 100.5t25 123.5v317h-138v33h171v-350z" />
    <glyph glyph-name="K" unicode="K" horiz-adv-x="406" 
d="M184 543q34 -20 61 -48t46 -61t29.5 -71t10.5 -77v-286h-32v286q0 55 -21 103.5t-57.5 85t-85 57.5t-103.5 21v-553h-32v700h32v-115q32 0 62.5 -6t59.5 -20l141 141h49l-160 -157v0z" />
    <glyph glyph-name="L" unicode="L" horiz-adv-x="328" 
d="M0 700h33v-668h220v-32h-253v700v0z" />
    <glyph glyph-name="M" unicode="M" horiz-adv-x="571" 
d="M249 431q63 67 124.5 134t124.5 135v-700h-32v618q-54 -60 -108 -118t-109 -117l-217 233v-616h-32v699q63 -67 124.5 -134.5t124.5 -133.5z" />
    <glyph glyph-name="N" unicode="N" horiz-adv-x="357" 
d="M283 700v-700h-33v385l-218 234v-619h-32v700l250 -267v267h33z" />
    <glyph glyph-name="O" unicode="O" horiz-adv-x="776" 
d="M0 350q0 72 27.5 136t75 111.5t111.5 75t136 27.5t136 -27.5t112 -75t75.5 -111.5t27.5 -136t-27.5 -136t-75.5 -111.5t-112 -75t-136 -27.5t-136 27.5t-111.5 75t-75 111.5t-27.5 136zM32 350q0 -66 25 -123.5t68.5 -101t101 -68.5t123.5 -25t123.5 25t101 68.5
t68.5 101t25 123.5t-25 123.5t-68.5 101t-101 68.5t-123.5 25t-123.5 -25t-101 -68.5t-68.5 -101t-25 -123.5z" />
    <glyph glyph-name="P" unicode="P" horiz-adv-x="403" 
d="M331 401q0 -62 -23.5 -116.5t-64 -95t-95 -64t-115.5 -23.5v-102h-33v700h32q62 0 116.5 -23.5t95 -64t64 -95t23.5 -116.5zM33 135q55 0 103.5 21t84.5 57t57 84.5t21 103.5t-21 103.5t-57 84.5t-84.5 57.5t-103.5 21.5v-533v0z" />
    <glyph glyph-name="Q" unicode="Q" horiz-adv-x="770" 
d="M661 0l-84 84q-48 -40 -105.5 -62t-120.5 -22q-72 0 -136 27.5t-112 75.5t-75.5 112t-27.5 136t28 136t75.5 111t111.5 74.5t136 27.5t135.5 -27.5t111 -75t75 -111t27.5 -135.5q0 -69 -26 -132.5t-74 -111.5l108 -107h-47zM351 33q56 0 108.5 19.5t94.5 54.5l-189 189
v45l213 -212q44 45 67 102.5t23 119.5q0 65 -25 122.5t-68.5 101t-101 68.5t-122.5 25q-66 0 -123.5 -25t-101 -68t-68.5 -100.5t-25 -123.5t25 -124t68 -101t101 -68t124 -25z" />
    <glyph glyph-name="R" unicode="R" horiz-adv-x="406" 
d="M331 401q0 -83 -40.5 -151t-107.5 -107l144 -143h-46l-128 127q-58 -25 -121 -25v-102h-32v700h32q62 0 116.5 -23.5t95 -64t64 -95t23.5 -116.5zM32 134q55 0 103.5 21t85 57.5t57.5 85t21 103.5t-21 103.5t-57.5 85t-85 57.5t-103.5 21v-534z" />
    <glyph glyph-name="S" unicode="S" horiz-adv-x="498" 
d="M90 577q0 26 10.5 48t28 38.5t40.5 26t49 9.5q45 0 80.5 -28t44.5 -72l-33 -6q-7 32 -33.5 53t-58.5 21q-19 0 -36 -7t-30 -19t-21 -28.5t-8 -35.5q0 -35 22.5 -58.5t56.5 -44.5t73.5 -41.5t73.5 -49.5t56.5 -69t22.5 -98q0 -44 -17 -83.5t-46.5 -68.5t-68.5 -46t-83 -17
q-39 0 -75 13t-64.5 36.5t-47.5 56t-26 71.5l31 6q6 -32 22.5 -60t40.5 -48t54 -31.5t63 -11.5q37 0 71 14.5t59 39t40 58t15 71.5q0 54 -22.5 90t-56.5 62t-74 46.5t-74 42.5t-56.5 50t-22.5 70z" />
    <glyph glyph-name="T" unicode="T" horiz-adv-x="365" 
d="M290 700v-33h-129v-667h-32v667h-129v33h290v0z" />
    <glyph glyph-name="U" unicode="U" horiz-adv-x="445" 
d="M370 700v-515q0 -38 -14.5 -72t-39.5 -59t-59 -39.5t-72 -14.5t-72 14.5t-59 39.5t-39.5 59t-14.5 72v515h32v-515q0 -32 12 -60t33 -48.5t48.5 -32.5t59.5 -12q31 0 59 12t49 32.5t33 48.5t12 60v515h32z" />
    <glyph glyph-name="V" unicode="V" horiz-adv-x="571" 
d="M250 96q5 14 17 47.5t28 78.5t35 98l38 106q45 125 98 274h33l-249 -700l-250 700h34q53 -149 98 -274l38 -106t35 -98t28 -78.5t17 -47.5z" />
    <glyph glyph-name="W" unicode="W" horiz-adv-x="800" 
d="M34 700q51 -144 94 -265q18 -52 36.5 -104t34 -96.5t27.5 -78.5t18 -49q4 14 11 39.5t16 57.5t19 68l20 72q24 84 51 180q27 -96 51 -180l20 -72t19 -68t16.5 -57.5t11.5 -39.5q5 15 17 49t28 78.5t35 96t37 103.5q43 121 95 266h34l-250 -699q-26 91 -48 170
q-10 34 -19.5 68.5t-18.5 66t-16.5 57t-11.5 41.5q-5 -16 -12 -41.5t-15.5 -56.5t-18.5 -66t-19 -69q-22 -80 -48 -171l-248 700h34z" />
    <glyph glyph-name="X" unicode="X" horiz-adv-x="547" 
d="M1 0l221 440l-129 260h36l111 -223l112 223h36l-130 -260l216 -440h-36l-198 403l-203 -403h-36v0z" />
    <glyph glyph-name="Y" unicode="Y" horiz-adv-x="586" 
d="M272 99v-99h-32l-1 99l-239 601h34q55 -138 101 -252q19 -49 38.5 -97.5t36 -90t29 -72t17.5 -42.5q5 12 17 42.5t28.5 72t35.5 90t39 97.5q46 114 101 252h35z" />
    <glyph glyph-name="Z" unicode="Z" horiz-adv-x="593" 
d="M528 700q-117 -168 -232.5 -334t-233.5 -334h437v-32h-499q117 168 233.5 334t232.5 334h-239v32h301z" />
    <glyph glyph-name="bracketleft" unicode="[" horiz-adv-x="204" 
d="M133 700v-32h-101v-636h98v-32h-130v700h133z" />
    <glyph glyph-name="backslash" unicode="\" horiz-adv-x="365" 
d="M0 700h35l254 -700h-34l-255 700v0z" />
    <glyph glyph-name="bracketright" unicode="]" horiz-adv-x="204" 
d="M-2 0v33h100v634h-98v33h131v-700h-133z" />
    <glyph glyph-name="asciicircum" unicode="^" horiz-adv-x="348" 
d="M278 561l-23 -23q-28 26 -51 50q-20 20 -38.5 39t-25.5 27q-8 -8 -26.5 -27t-38.5 -39q-24 -24 -51 -50l-24 23l140 138z" />
    <glyph glyph-name="underscore" unicode="_" horiz-adv-x="598" 
d="M2 -33v31h522l-1 -32l-521 1v0z" />
    <glyph glyph-name="grave" unicode="`" horiz-adv-x="141" 
d="M34 815l32 -78h-32l-32 78h32z" />
    <glyph glyph-name="a" unicode="a" horiz-adv-x="572" 
d="M289 492h-79q-45 -124 -88 -246t-87 -246h-35l250 700l250 -700h-34zM278 524q-7 20 -14.5 40t-13.5 40q-8 -20 -15 -40l-14 -40h57z" />
    <glyph glyph-name="b" unicode="b" horiz-adv-x="367" 
d="M296 436q0 -45 -15 -86t-41 -75t-62.5 -58.5t-79.5 -35.5q17 -15 27 -35.5t10 -43.5q0 -21 -8 -39.5t-22.5 -32.5t-33 -22t-39.5 -8h-32v700h32q54 0 102 -21t84 -57t57 -84t21 -102zM32 32q29 0 49.5 20.5t20.5 49.5t-20.5 49.5t-49.5 21.5v-141v0zM264 436
q0 48 -18.5 90t-50 73.5t-73.5 49.5t-90 18v-462q48 0 90 18t73.5 49.5t50 73.5t18.5 90z" />
    <glyph glyph-name="c" unicode="c" horiz-adv-x="588" 
d="M305 700q60 0 116 -23.5t99 -65.5l-22 -23q-38 38 -88.5 59t-104.5 21q-56 0 -105.5 -22t-86.5 -59t-59 -87t-22 -105q0 -56 22 -105.5t59 -86.5t86.5 -58.5t105.5 -21.5q54 0 104.5 20.5t88.5 58.5l22 -22q-43 -42 -99 -65.5t-116 -23.5q-62 0 -117.5 24.5t-97 66
t-66 96.5t-24.5 117q0 61 24.5 116.5t66.5 97.5t97 66.5t117 24.5zM66 33h453v-33h-453v33z" />
    <glyph glyph-name="d" unicode="d" horiz-adv-x="425" 
d="M353 700v-700h-33q-66 0 -124.5 25.5t-102 69t-68.5 102t-25 124.5t25 124.5t68.5 102t102 69t125.5 25.5v58h32zM33 321q0 -60 22.5 -112.5t61.5 -91.5t91.5 -61.5t111.5 -22.5l1 577q-60 0 -112.5 -23t-91.5 -62t-61.5 -91.5t-22.5 -112.5z" />
    <glyph glyph-name="e" unicode="e" horiz-adv-x="326" 
d="M255 667h-223v-143h143v-33h-143v-459h220v-32h-252v700h255v-33v0z" />
    <glyph glyph-name="f" unicode="f" 
d="M256 667h-224v-144h143v-32h-143v-727h-32v936h256v-33v0z" />
    <glyph glyph-name="g" unicode="g" horiz-adv-x="455" 
d="M382 -236h-32v236q-72 0 -136 27.5t-111.5 75t-75 111.5t-27.5 137q0 72 27.5 135.5t75 111t111.5 75t136 27.5v-32q-66 0 -123.5 -25t-100.5 -68t-68 -101t-25 -123q0 -66 25 -124t68 -101t100.5 -68t122.5 -25v458h-41v33h74v-760z" />
    <glyph glyph-name="h" unicode="h" horiz-adv-x="352" 
d="M250 0v492h-218v-492h-32v700h32v-176h218v176h32v-700h-32v0z" />
    <glyph glyph-name="i" unicode="i" horiz-adv-x="112" 
d="M0 524h32v-524h-32v524v0zM0 700h32v-82h-32v82v0z" />
    <glyph glyph-name="j" unicode="j" horiz-adv-x="146" 
d="M40 114v410h32v-410q0 -72 -27.5 -136t-75 -111.5t-111 -75t-136.5 -27.5v32q66 0 124 25t101 68.5t68 101t25 123.5zM73 700l-1 -81h-32l1 81h32z" />
    <glyph glyph-name="k" unicode="k" horiz-adv-x="403" 
d="M344 0h-48l-142 141q-58 -26 -121 -26v-115h-33v700h33v-552q55 0 103.5 21t84.5 57t57 84.5t21 103.5v286h32v-286q0 -80 -39 -148t-108 -109z" />
    <glyph glyph-name="l" unicode="l" horiz-adv-x="126" 
d="M33 700v-586q0 -66 25 -124t67.5 -101.5t100.5 -68.5t124 -25v-32q-72 0 -135.5 28t-111.5 75.5t-75.5 111.5t-27.5 136v586h33z" />
    <glyph glyph-name="m" unicode="m" horiz-adv-x="571" 
d="M499 700v-700h-32v547q-55 -124 -109 -246t-108 -246q-55 124 -109 246t-108 246v-547h-33v699l250 -564z" />
    <glyph glyph-name="n" unicode="n" horiz-adv-x="357" 
d="M283 700v-700h-33v385l-218 234v-619h-32v700l250 -267v267h33z" />
    <glyph glyph-name="o" unicode="o" horiz-adv-x="681" 
d="M0 395q0 63 24 118.5t66 97t97.5 65.5t118.5 24t118.5 -24t97 -65.5t65.5 -97t24 -118.5t-24 -118.5t-65.5 -96.5t-97 -65t-118.5 -24t-118.5 23.5t-97.5 65t-66 97t-24 118.5zM32 395q0 -56 21.5 -106t59 -87t87.5 -58.5t106 -21.5t105.5 21.5t86.5 59t58.5 87
t21.5 105.5t-21.5 105.5t-58.5 87t-86.5 59t-105.5 21.5t-106 -21.5t-87.5 -58.5t-59 -87t-21.5 -106zM41 31h528v-31h-528v31z" />
    <glyph glyph-name="p" unicode="p" horiz-adv-x="457" 
d="M382 350q0 -72 -27.5 -136t-75 -111t-111.5 -75t-137 -28v-237h-31v937h32q72 0 136 -27.5t111.5 -75t75 -111t27.5 -136.5zM31 33q66 0 124 25t101 68t68 101t25 123q0 66 -25 124t-68 101t-100.5 68t-123.5 25l-1 -635v0z" />
    <glyph glyph-name="q" unicode="q" horiz-adv-x="770" 
d="M391 3q19 -45 50 -83t71 -65.5t87.5 -42.5t99.5 -15v-33q-59 0 -112.5 17.5t-98 49t-78 75t-52.5 94.5h-8q-73 0 -136.5 27.5t-111 75t-75 111.5t-27.5 136t27.5 136t75 111t111 74.5t136.5 27.5q72 0 135.5 -27.5t111 -74.5t75 -111t27.5 -136q0 -67 -24 -127
t-65.5 -106.5t-97.5 -76.5t-121 -37zM33 350q0 -66 24.5 -123.5t67 -100.5t100 -68t122.5 -25q-13 45 -13 96v138h32v-138q0 -47 14 -95q60 6 112.5 33t91 69t61 97t22.5 117q0 65 -25 122.5t-68 100.5t-100.5 68t-123.5 25t-123.5 -25t-100.5 -68t-68 -100.5t-25 -122.5z
" />
    <glyph glyph-name="r" unicode="r" horiz-adv-x="369" 
d="M98 519q43 -11 79.5 -35.5t63 -58.5t41 -75.5t14.5 -86.5v-263h-32v263q0 46 -18 88.5t-49 74t-72.5 50.5t-88.5 19h-4v-495h-32v700h32q21 0 39.5 -8t32.5 -22t22 -32.5t8 -39.5q0 -23 -9.5 -43.5t-26.5 -35.5zM102 598q0 29 -20.5 49t-49.5 21v-140q29 -2 49.5 20
t20.5 50z" />
    <glyph glyph-name="s" unicode="s" horiz-adv-x="445" 
d="M80 591q0 22 9 42t24.5 35t35.5 23.5t42 8.5q19 0 38 -6.5t34 -18.5t25.5 -28.5t13.5 -35.5l-32 -7q-5 28 -27.5 45.5t-50.5 17.5q-32 0 -56 -21.5t-24 -54.5q0 -29 19.5 -49.5t49 -38t63.5 -36t63.5 -43.5t49 -59.5t19.5 -85.5q0 -39 -15 -73.5t-41 -60t-60.5 -40
t-73.5 -14.5q-34 0 -65 11.5t-55.5 32t-41.5 49t-23 61.5l32 6q5 -28 19 -51t34.5 -40t46 -26.5t54.5 -9.5q32 0 60.5 12t50 33t34 49t12.5 61q0 46 -19.5 77t-49 53t-63.5 39.5t-63.5 36.5t-49 43.5t-19.5 62.5zM0 32h377v-32h-377v32z" />
    <glyph glyph-name="t" unicode="t" horiz-adv-x="231" 
d="M33 115q0 -66 25 -124t68 -101t100.5 -68t123.5 -25v-33q-72 0 -135.5 28t-111.5 75.5t-75.5 111.5t-27.5 136v586h33v-175h110v-34h-110v-377v0z" />
    <glyph glyph-name="u" unicode="u" horiz-adv-x="442" 
d="M371 700v-422q0 -39 -14.5 -72.5t-40 -58.5t-59 -39.5t-72.5 -14.5q-38 0 -72 14.5t-59 39.5t-39.5 58.5t-14.5 72.5v422h32v-422q0 -32 12 -59.5t33 -48.5t48.5 -33t59.5 -12t60 12t48.5 33t32.5 48.5t12 59.5v422h33zM0 32h370v-32h-370v32z" />
    <glyph glyph-name="v" unicode="v" horiz-adv-x="518" 
d="M221 95q5 14 15.5 44t25 69.5t31 85.5t32.5 91q38 106 83 233h34l-221 -619l-222 619h34q45 -127 84 -233q16 -45 32.5 -91t30.5 -85.5t25 -69.5t16 -44zM0 700h442v-33h-442v33z" />
    <glyph glyph-name="w" unicode="w" horiz-adv-x="807" 
d="M35 700q55 -157 101 -286q19 -55 38.5 -109.5t35.5 -100t27.5 -78t15.5 -44.5q4 9 11.5 23t16 31t18.5 35.5t19 36.5q22 42 47 91q25 -49 47 -91q9 -18 19 -36.5t18.5 -35.5t16 -31t12.5 -23q4 12 15.5 44.5t28 78t36 100t39.5 109.5q46 129 102 286h35l-251 -699
q-26 52 -50 98q-10 19 -20.5 39t-19.5 37.5t-16.5 31.5t-11.5 22q-4 -8 -11 -22.5t-16 -32t-19 -37.5t-20 -39q-24 -46 -51 -98l-248 700h35z" />
    <glyph glyph-name="x" unicode="x" horiz-adv-x="542" 
d="M473 700l-221 -439l129 -261h-36l-111 224l-112 -224h-35l129 261l-216 439h36l199 -403l202 403h36v0z" />
    <glyph glyph-name="y" unicode="y" horiz-adv-x="452" 
d="M379 701v-589q0 -72 -27.5 -136t-75 -112t-111.5 -75.5t-136 -27.5v33q49 0 95.5 14.5t85.5 41.5t69 65t47 85q-68 2 -127 29.5t-103.5 73.5t-70 106t-25.5 128v364h33v-358q0 -64 24 -119.5t65.5 -97t97 -65t119.5 -23.5q8 35 8 74v589h32z" />
    <glyph glyph-name="z" unicode="z" horiz-adv-x="598" 
d="M0 0q117 168 233.5 334t232.5 334h-438v32h500q-117 -168 -233.5 -334t-232.5 -334h239v-32h-301z" />
    <glyph glyph-name="braceleft" unicode="{" horiz-adv-x="221" 
d="M35 382q18 18 18 43v181q0 19 7.5 36t20 30t29.5 20.5t37 7.5v-32q-26 0 -43.5 -18t-17.5 -44l-1 -181q0 -25 -11.5 -45.5t-31.5 -32.5q20 -13 32 -34t12 -46v-174q0 -26 18 -44t43 -18v-32q-19 0 -36 7.5t-29.5 20t-20 29.5t-7.5 37v174q0 12 -5 23.5t-14 19.5l-36 37z
" />
    <glyph glyph-name="bar" unicode="|" horiz-adv-x="107" 
d="M0 749h33v-933h-33v933v0z" />
    <glyph glyph-name="braceright" unicode="}" horiz-adv-x="221" 
d="M111 317q-18 -18 -18 -43v-181q0 -19 -7 -36t-19.5 -29.5t-29.5 -20t-36 -7.5v32q25 0 42.5 18t17.5 43v181q0 25 11.5 45.5t31.5 33.5q-20 12 -32 32.5t-12 46.5v174q0 25 -17.5 43t-43.5 18v32q19 0 36 -7.5t29.5 -20t20 -29.5t7.5 -36v-174q0 -13 5.5 -24t13.5 -19
l36 -36z" />
    <glyph glyph-name="asciitilde" unicode="~" horiz-adv-x="335" 
d="M125 339q37 20 75 13q41 -9 62 -43l-28 -17q-14 22 -41 28q-27 5 -51 -10q-1 0 -3 -2q-1 -1 -2 -1q-17 -10 -36.5 -13t-38.5 0q-19 5 -34.5 15.5t-26.5 27.5l28 17q12 -21 40 -28q13 -3 26.5 -0.5t24.5 9.5q0 1 1 1t2 1l2 2v0z" />
    <glyph glyph-name="nonbreakingspace" unicode="&#xa0;" horiz-adv-x="202" 
 />
    <glyph glyph-name="currency" unicode="&#xa4;" horiz-adv-x="277" 
d="M202 350q0 -15 -4.5 -30t-13.5 -28l11 -12l-23 -23l-10 12q-28 -20 -60 -20q-17 0 -32.5 5t-28.5 16l-10 -10l-23 23l10 10q-9 12 -13.5 27t-4.5 30q0 16 4.5 31.5t14.5 28.5l-11 12l23 22l12 -11q25 19 59 19q30 0 57 -19l14 14l22 -23l-13 -13q20 -26 20 -61zM33 350
q0 -29 20.5 -48.5t48.5 -19.5q27 0 48 20t21 48q0 13 -6 25.5t-15.5 22.5t-22 15.5t-25.5 5.5q-29 0 -49 -20t-20 -49z" />
    <glyph glyph-name="brokenbar" unicode="&#xa6;" horiz-adv-x="107" 
d="M33 243v-299h-33v299h33zM33 749v-299h-33v299h33z" />
    <glyph glyph-name="section" unicode="&#xa7;" horiz-adv-x="406" 
d="M309 249q10 -16 16 -37t6 -45q0 -30 -10.5 -57.5t-28.5 -49.5t-43 -37t-55 -20q-33 -6 -65.5 1.5t-59.5 25.5t-45.5 45.5t-23.5 62.5l32 5q4 -27 18.5 -49t36.5 -36.5t48 -21t53 -1.5q24 4 44 16.5t35 30t23.5 39.5t8.5 46q0 32 -15 62t-43 50l-18.5 11.5t-41.5 25.5
t-44 26.5t-26 15.5q-16 11 -27 27t-16 34q-2 14 0 29t8.5 29t16.5 26t24 19q-1 0 -1 0.5t-1 0.5t-1 1q-19 13 -32 34t-13 46q0 16 6.5 32t17.5 29t26.5 22t32.5 12q20 4 39 0t34.5 -14.5t27 -26.5t15.5 -37l-31 -6q-4 24 -28 40t-51 12q-23 -4 -39 -21t-16 -42q0 -34 30 -53
l20 -13t44 -28t44 -28l20 -13q32 -22 52.5 -58t20.5 -78q0 -23 -6.5 -43.5t-18.5 -40.5zM259 304q8 -5 16 -11t15 -14q10 23 10 54q0 67 -57 110l-9 6t-23 14.5t-30 18.5t-29 19q-12 -3 -22 -10.5t-17.5 -17.5t-10.5 -22.5t0 -24.5q5 -26 28 -40q0 -1 20.5 -13.5t44.5 -27.5
q28 -18 64 -41z" />
    <glyph glyph-name="copyright" unicode="&#xa9;" horiz-adv-x="294" 
d="M115 512q-31 0 -53 22t-22 53q0 32 22.5 54.5t53.5 22.5q32 0 54 -22l-22 -21q-12 13 -31 13q-20 0 -33.5 -14t-13.5 -33q0 -18 13.5 -31.5t31.5 -13.5q9 0 18 3.5t15 10.5l22 -22q-11 -11 -25.5 -16.5t-29.5 -5.5zM0 586q0 24 9 44.5t24.5 36t36 24.5t44.5 9t44.5 -9
t36 -24.5t24.5 -36t9 -44.5t-9 -44.5t-24.5 -36t-36 -24.5t-44.5 -9t-44.5 9t-36 24.5t-24.5 36t-9 44.5zM25 586q0 -38 25.5 -63t63.5 -25q37 0 63 25.5t26 62.5q0 18 -7 34t-19.5 28.5t-28.5 19.5t-34 7q-37 0 -63 -26t-26 -63z" />
    <glyph glyph-name="guillemotleft" unicode="&#xab;" horiz-adv-x="399" 
d="M0 348l208 207l22 -23l-184 -184l184 -185l-22 -22l-208 207v0zM95 348l208 207l22 -23l-184 -184l184 -185l-22 -22l-208 207v0z" />
    <glyph glyph-name="logicalnot" unicode="&#xac;" horiz-adv-x="464" 
d="M374 349v-170h-33v137l-341 1v33h374v-1v0v0z" />
    <glyph glyph-name="registered" unicode="&#xae;" horiz-adv-x="304" 
d="M-1 588q0 23 9 43.5t24 35.5t35 24t43 9t43.5 -9t35.5 -24t24 -35.5t9 -43.5t-9 -43t-24 -35t-35.5 -24t-43.5 -9t-43 9t-35 24t-24 35t-9 43zM23 588q0 -18 7 -33.5t19 -27.5t27.5 -19t33.5 -7q36 0 62 25.5t26 61.5q0 37 -25.5 62.5t-62.5 25.5q-36 0 -61.5 -26
t-25.5 -62zM158 603q0 -26 -20 -44l19 -37l-37 -1l-11 25h-2v-25h-29v138h29q21 0 36 -18t15 -38zM107 575q10 2 16 10t6 18t-6 17t-16 9v-54z" />
    <glyph glyph-name="degree" unicode="&#xb0;" horiz-adv-x="219" 
d="M1 629q0 29 21.5 50t50.5 21t50 -21t21 -50q0 -14 -5.5 -27t-15.5 -23t-22.5 -16t-27.5 -6q-29 0 -50.5 21.5t-21.5 50.5zM34 629q0 -16 11.5 -27.5t27.5 -11.5t27.5 11.5t11.5 27.5t-11.5 28t-27.5 12q-17 0 -28 -11.5t-11 -28.5z" />
    <glyph glyph-name="plusminus" unicode="&#xb1;" horiz-adv-x="306" 
d="M232 281h-98v-102h-33l1 102h-102v32h102v98h32v-98h98v-32zM232 130l-232 1v32h232v-33z" />
    <glyph glyph-name="mu" unicode="&#xb5;" horiz-adv-x="448" 
d="M371 700v-516q0 -38 -14.5 -71.5t-40 -59t-59 -40t-71.5 -14.5q-48 0 -88.5 22.5t-65.5 58.5v-317h-32v937h32v-516q0 -32 12 -59.5t33 -48t49 -32.5t60 -12q31 0 59 12t48.5 32.5t32.5 48t12 59.5v516h33z" />
    <glyph glyph-name="paragraph" unicode="&#xb6;" horiz-adv-x="467" 
d="M298 101q-62 0 -116.5 23.5t-95 64t-64 95t-23.5 116.5t23.5 117t64 95.5t95.5 64t117 23.5h33v-700h-34v101v0zM392 700v-700h-32v700h32z" />
    <glyph glyph-name="periodcentered" unicode="&#xb7;" horiz-adv-x="107" 
d="M33 391v-79h-33v79h33z" />
    <glyph glyph-name="guillemotright" unicode="&#xbb;" horiz-adv-x="399" 
d="M23 142l-22 24l184 184l-184 184l22 23l207 -207zM118 142l-22 24l184 184l-184 184l22 23l207 -207z" />
    <glyph glyph-name="afii10023" unicode="&#x401;" 
d="M256 667h-223v-534h142v-32h-142v-68h219v-33h-252v700l256 -1v-32zM117 812v-78h-31v78h31zM177 813v-79h-32v79h32z" />
    <glyph glyph-name="afii10053" unicode="&#x404;" horiz-adv-x="422" 
d="M303 348h-271q1 -65 25 -122q25 -57 68.5 -100.5t101 -68.5t123.5 -25v-32q-72 0 -136 27.5t-111.5 75t-75 111.5t-27.5 136t27.5 136t75 111.5t111.5 75t136 27.5v-32q-66 0 -123.5 -25t-101 -68.5t-68.5 -101.5q-19 -44 -24 -94h270v-31z" />
    <glyph glyph-name="uni0406" unicode="&#x406;" horiz-adv-x="253" 
d="M178 32v-32h-178v32h73v635h-73v33h178v-33h-73v-635h73z" />
    <glyph glyph-name="afii10056" unicode="&#x407;" horiz-adv-x="253" 
d="M178 32v-32h-178v32h73v635h-73v33h178v-33h-73v-635h73zM74 813v-78h-31v78h31zM134 814v-79h-32v79h32z" />
    <glyph glyph-name="afii10057" unicode="&#x408;" horiz-adv-x="423" 
d="M350 350q0 -72 -27.5 -136t-75 -111.5t-111.5 -75t-136 -27.5v33q66 0 123.5 25t100.5 68t68 100.5t25 123.5v317h-138v33h171v-350z" />
    <glyph glyph-name="afii10062" unicode="&#x40e;" horiz-adv-x="529" 
d="M172 0l52 131l-226 569h34l210 -524l209 524h35l-280 -700h-34zM357 830q0 -45 -31 -76q-32 -32 -77 -32q-21 0 -41 8.5t-36 23.5q-30 32 -30 76h32q0 -31 22 -53q11 -11 25 -17t28 -6q30 0 55 23q21 23 21 53h32z" />
    <glyph glyph-name="afii10017" unicode="&#x410;" horiz-adv-x="580" 
d="M430 102h-359l-36 -102h-35l250 701l251 -701h-35zM418 134q-42 118 -84 235.5t-84 235.5q-45 -118 -85.5 -235.5t-82.5 -235.5h336z" />
    <glyph glyph-name="afii10018" unicode="&#x411;" horiz-adv-x="367" 
d="M32 668v-140q59 -3 108 -23.5t83.5 -55.5t53.5 -82.5t19 -104.5q0 -54 -21 -102t-57 -84t-84 -56.5t-102 -20.5h-32v701h228v-32h-196zM32 31q47 0 89.5 18t74 49.5t50 73.5t18.5 90t-17 90.5t-47.5 74t-73.5 50t-94 18.5v-464z" />
    <glyph glyph-name="afii10019" unicode="&#x412;" horiz-adv-x="367" 
d="M98 519q44 -11 80.5 -36t62.5 -59t40.5 -75.5t14.5 -86.5q0 -54 -21 -102t-57 -84t-84 -56.5t-102 -20.5h-32v701h32q21 0 40 -8t33 -22t22 -33t8 -40q0 -23 -10 -43.5t-27 -34.5zM103 597q0 29 -21 50t-50 21v-140q29 0 50 20t21 49zM32 31q47 0 89.5 18t74 49.5
t50 73.5t18.5 90t-18.5 90t-50 74t-73.5 50.5t-90 18.5v-464z" />
    <glyph glyph-name="afii10020" unicode="&#x413;" 
d="M256 668h-224v-668h-32v700h256v-32z" />
    <glyph glyph-name="afii10021" unicode="&#x414;" horiz-adv-x="642" 
d="M35 0v-145h-32v178h57l222 668l221 -668h60v-178h-32v145h-496zM93 33h376l-187 567z" />
    <glyph glyph-name="afii10022" unicode="&#x415;" 
d="M256 667h-223v-534h142v-32h-142v-68h219v-33h-252v700l256 -1v-32z" />
    <glyph glyph-name="afii10024" unicode="&#x416;" horiz-adv-x="719" 
d="M313 553q-55 0 -103.5 -21t-85 -57.5t-57.5 -85t-21 -103.5v-286h-32v286q0 39 10.5 77t29.5 71t46 61t61 48l-160 157h49l141 -141q29 14 59.5 20t62.5 6v115h32v-115q32 0 62.5 -6t59.5 -20l141 141h49l-160 -157q34 -20 61 -48t46 -61t29.5 -71t10.5 -77v-286h-32v286
q0 55 -21 103.5t-57.5 85t-85 57.5t-103.5 21v-553h-32v553z" />
    <glyph glyph-name="afii10025" unicode="&#x417;" horiz-adv-x="498" 
d="M153 451q21 -1 38 -1t32 3t29 10.5t29 20.5q39 33 39 93q0 19 -8 35.5t-21 28.5t-30 19t-36 7q-32 0 -58.5 -21t-33.5 -53l-33 6q9 45 44.5 72.5t80.5 27.5q25 0 48.5 -9.5t41 -26t28 -39t10.5 -47.5q0 -23 -7 -45t-19.5 -41t-30 -33t-37.5 -21q34 -10 64.5 -30.5
t53.5 -49.5t37 -65t14 -76q0 -44 -17 -83.5t-46.5 -68.5t-68.5 -46t-83 -17q-40 0 -75.5 13t-63.5 36.5t-47.5 56t-26.5 71.5l31 6q6 -32 22.5 -60t40.5 -48t54 -31.5t63 -11.5q37 0 71 14.5t59 39t40 58t15 71.5q0 33 -9.5 62t-26.5 53t-39.5 42t-49.5 30t-52 14t-66 2v32
v0z" />
    <glyph glyph-name="afii10026" unicode="&#x418;" horiz-adv-x="398" 
d="M34 700v-591l269 591h13v-700h-30v590l-271 -590v0h-12v700h31z" />
    <glyph glyph-name="afii10027" unicode="&#x419;" horiz-adv-x="356" 
d="M268 847q1 -25 -6.5 -44t-21 -32t-31.5 -20t-38 -8q-22 -2 -43.5 4t-37.5 19t-25.5 33t-7.5 48h30q-1 -25 10 -41t28 -24.5t37.5 -8.5t37.5 8t28 24.5t10 41.5h30zM0 700v-700h12l271 590v-590h30v700h-13l-269 -589v589h-31z" />
    <glyph glyph-name="afii10028" unicode="&#x41a;" horiz-adv-x="406" 
d="M184 543q34 -20 61 -48t46 -61t29.5 -71t10.5 -77v-286h-32v286q0 55 -21 103.5t-57.5 85t-85 57.5t-103.5 21v-553h-32v700h32v-115q32 0 62.5 -6t59.5 -20l141 141h49z" />
    <glyph glyph-name="afii10029" unicode="&#x41b;" horiz-adv-x="580" 
d="M250 605l-215 -605h-35l250 701l251 -701h-35z" />
    <glyph glyph-name="afii10030" unicode="&#x41c;" horiz-adv-x="571" 
d="M249 431q63 67 124.5 134t124.5 135v-700h-32v618q-54 -60 -108 -118t-109 -117l-217 233v-616h-32v699q63 -67 124.5 -134.5t124.5 -133.5z" />
    <glyph glyph-name="afii10031" unicode="&#x41d;" horiz-adv-x="357" 
d="M251 0v101h-218v-101h-33v700h33v-567h218v567h32v-700h-32z" />
    <glyph glyph-name="afii10032" unicode="&#x41e;" horiz-adv-x="776" 
d="M0 350q0 72 27.5 136t75 111.5t111.5 75t136 27.5t136 -27.5t112 -75t75.5 -111.5t27.5 -136t-27.5 -136t-75.5 -111.5t-112 -75t-136 -27.5t-136 27.5t-111.5 75t-75 111.5t-27.5 136zM32 350q0 -66 25 -123.5t68.5 -101t101 -68.5t123.5 -25t123.5 25t101 68.5
t68.5 101t25 123.5t-25 123.5t-68.5 101t-101 68.5t-123.5 25t-123.5 -25t-101 -68.5t-68.5 -101t-25 -123.5z" />
    <glyph glyph-name="afii10033" unicode="&#x41f;" horiz-adv-x="357" 
d="M251 0v668h-218v-668h-33v700h283v-700h-32z" />
    <glyph glyph-name="afii10034" unicode="&#x420;" horiz-adv-x="403" 
d="M331 401q0 -62 -23.5 -116.5t-64 -95t-95 -64t-115.5 -23.5v-102h-33v700h32q62 0 116.5 -23.5t95 -64t64 -95t23.5 -116.5zM33 135q55 0 103.5 21t84.5 57t57 84.5t21 103.5t-21 103.5t-57 84.5t-84.5 57.5t-103.5 21.5v-533z" />
    <glyph glyph-name="afii10035" unicode="&#x421;" horiz-adv-x="422" 
d="M0 350q0 72 27.5 136t75 111.5t111.5 75t136 27.5v-32q-66 0 -123.5 -25t-101 -68.5t-68.5 -101t-25 -123.5t25 -123.5t68.5 -101t101 -68.5t123.5 -25v-32q-72 0 -136 27.5t-111.5 75t-75 111.5t-27.5 136z" />
    <glyph glyph-name="afii10036" unicode="&#x422;" horiz-adv-x="365" 
d="M290 700v-33h-129v-667h-32v667h-129v33h290z" />
    <glyph glyph-name="afii10037" unicode="&#x423;" horiz-adv-x="529" 
d="M172 0l52 131l-226 569h34l210 -524l209 524h35l-280 -700h-34z" />
    <glyph glyph-name="afii10038" unicode="&#x424;" horiz-adv-x="715" 
d="M343 -1h-33h-2v57q-62 0 -116.5 23.5t-95.5 63.5t-64.5 93t-23.5 113q0 61 24 114.5t65.5 93t96 62.5t115.5 23v56h33l-1 -56q61 0 116 -23t96 -62.5t65 -93t24 -114.5q0 -60 -23.5 -113t-64 -93t-95 -63.5t-116.5 -23.5v-57zM342 89q55 0 103.5 20.5t85 56t57.5 82.5
t21 101t-21 101.5t-57.5 83t-85.5 55.5t-104 20zM308 609q-56 0 -104.5 -20t-84.5 -55.5t-57 -83t-21 -101.5t21 -101t57.5 -82.5t85 -56t103.5 -20.5v520z" />
    <glyph glyph-name="afii10039" unicode="&#x425;" horiz-adv-x="547" 
d="M1 0l221 440l-129 260h36l111 -223l112 223h36l-130 -260l216 -440h-36l-198 403l-203 -403h-36z" />
    <glyph glyph-name="afii10040" unicode="&#x426;" horiz-adv-x="408" 
d="M0 0v700h33v-668h218v668h32v-667h64v-176h-32v143h-38h-277z" />
    <glyph glyph-name="afii10041" unicode="&#x427;" horiz-adv-x="457" 
d="M350 396q-26 -28 -65 -42.5t-81 -13.5q-42 0 -77 14.5t-60.5 40t-39.5 61t-14 77.5v167h32v-165q0 -35 11.5 -65t32 -51.5t49 -34.5t62.5 -14q26 -1 51.5 5t46 18.5t35 31t17.5 43.5v232h32l1 -700h-32z" />
    <glyph glyph-name="afii10042" unicode="&#x428;" horiz-adv-x="613" 
d="M3 700h33v-668h218v668h33v-668h218v668h32l1 -700h-535v700z" />
    <glyph glyph-name="afii10043" unicode="&#x429;" horiz-adv-x="662" 
d="M3 700h33v-668h218v668h33v-668h218v668h32v-667h64v-176h-32v143h-566v700z" />
    <glyph glyph-name="afii10044" unicode="&#x42a;" horiz-adv-x="508" 
d="M173 31q47 0 89.5 18t74 49.5t50 73.5t18.5 90t-17 90.5t-47.5 74t-73.5 50t-94 18.5v-464zM141 667h-129v33h161v-172q59 -3 108 -23.5t83.5 -55.5t53.5 -82.5t19 -104.5q0 -54 -21 -102t-57 -84t-84 -56.5t-102 -20.5h-32v668z" />
    <glyph glyph-name="afii10045" unicode="&#x42b;" horiz-adv-x="478" 
d="M32 700v-172q59 -3 108 -23.5t83.5 -55.5t53.5 -82.5t19 -104.5q0 -54 -21 -102t-57 -84t-84 -56.5t-102 -20.5h-32v701h32zM32 31q47 0 89.5 18t74 49.5t50 73.5t18.5 90t-17 90.5t-47.5 74t-73.5 50t-94 18.5v-464zM380 700h32v-700h-32v700z" />
    <glyph glyph-name="afii10046" unicode="&#x42c;" horiz-adv-x="367" 
d="M32 700v-172q59 -3 108 -23.5t83.5 -55.5t53.5 -82.5t19 -104.5q0 -54 -21 -102t-57 -84t-84 -56.5t-102 -20.5h-32v701h32zM32 31q47 0 89.5 18t74 49.5t50 73.5t18.5 90t-17 90.5t-47.5 74t-73.5 50t-94 18.5v-464z" />
    <glyph glyph-name="afii10047" unicode="&#x42d;" horiz-adv-x="422" 
d="M47 379h270q-5 50 -24 94q-25 58 -68.5 101.5t-101 68.5t-123.5 25v32q72 0 136 -27.5t111.5 -75t75 -111.5t27.5 -136t-27.5 -136t-75 -111.5t-111.5 -75t-136 -27.5v32q66 0 123.5 25t101 68.5t68.5 100.5q24 57 25 122h-271v31z" />
    <glyph glyph-name="afii10048" unicode="&#x42e;" horiz-adv-x="892" 
d="M33 0h-33v700h33l1 -322h70q4 56 26 108q28 64 75.5 111.5t111.5 75t136 27.5t136 -27.5t112 -75t75.5 -111.5t27.5 -136t-27.5 -136t-75.5 -111.5t-112 -75t-136 -27.5t-136 27.5t-111.5 75t-75.5 111.5q-27 62 -27 132h-69zM135 350q0 -66 25 -123.5t68.5 -101
t101 -68.5t123.5 -25t123.5 25t101 68.5t68.5 101t25 123.5t-25 123.5t-68.5 101t-101 68.5t-123.5 25t-123.5 -25t-101 -68.5t-68.5 -101t-25 -123.5z" />
    <glyph glyph-name="afii10049" unicode="&#x42f;" horiz-adv-x="406" 
d="M-1 401q0 62 23.5 116.5t64 95t95 64t116.5 23.5h32v-700h-32v102q-63 0 -121 25l-128 -127h-46l144 143q-67 39 -107.5 107t-40.5 151zM298 668q-55 0 -103.5 -21t-85 -57.5t-57.5 -85t-21 -103.5t21 -103.5t57.5 -85t85 -57.5t103.5 -21v534z" />
    <glyph glyph-name="afii10065" unicode="&#x430;" horiz-adv-x="373" 
d="M296 700v-700h-32v314h-232v-314h-32v438q0 55 20 102.5t55.5 83t83.5 56t105 20.5h32zM32 346h232v324q-47 0 -89 -19t-74 -50.5t-50.5 -74t-18.5 -88.5v-92z" />
    <glyph glyph-name="afii10066" unicode="&#x431;" horiz-adv-x="276" 
d="M32 27q30 1 55.5 13t44 32t29 46.5t10.5 56.5q0 32 -11 59t-30 47.5t-44.5 32t-53.5 13.5v-300zM0 699h170v-32h-138v-313q38 -2 69.5 -16t54 -37.5t35 -55.5t12.5 -70q0 -36 -13.5 -68t-37 -56t-54.5 -37.5t-66 -13.5h-32v700v-1z" />
    <glyph glyph-name="afii10067" unicode="&#x432;" horiz-adv-x="367" 
d="M296 436q0 -45 -15 -86t-41 -75t-62.5 -58.5t-79.5 -35.5q17 -15 27 -35.5t10 -43.5q0 -21 -8 -39.5t-22.5 -32.5t-33 -22t-39.5 -8h-32v700h32q54 0 102 -21t84 -57t57 -84t21 -102zM32 32q29 0 49.5 20.5t20.5 49.5t-20.5 49.5t-49.5 21.5v-141zM264 436q0 48 -18.5 90
t-50 73.5t-73.5 49.5t-90 18v-462q48 0 90 18t73.5 49.5t50 73.5t18.5 90z" />
    <glyph glyph-name="afii10068" unicode="&#x433;" 
d="M256 668h-224v-668h-32v700h256v-32z" />
    <glyph glyph-name="afii10069" unicode="&#x434;" horiz-adv-x="478" 
d="M320 33v636q-47 0 -89 -18.5t-74 -50.5t-50.5 -74t-18.5 -88v-405h230h2zM412 33v-178h-32v145h-348v-145h-32v178h56v405q0 55 20 102.5t55.5 83t83.5 56t105 20.5h32v-667h60z" />
    <glyph glyph-name="afii10070" unicode="&#x435;" horiz-adv-x="326" 
d="M255 667h-223v-143h143v-33h-143v-459h220v-32h-252v700h255v-33z" />
    <glyph glyph-name="afii10072" unicode="&#x436;" horiz-adv-x="719" 
d="M313 700h32v-553q55 0 103.5 21t85 57.5t57.5 85t21 103.5v286h32v-286q0 -39 -10.5 -77t-29.5 -71t-46 -61t-61 -48l160 -157h-49l-141 141q-29 -14 -59.5 -20t-62.5 -6v-115h-32v115q-32 0 -62.5 6t-59.5 20l-141 -141h-49l160 157q-34 20 -61 48t-46 61t-29.5 71
t-10.5 77v286h32v-286q0 -55 21 -103.5t57.5 -85t85 -57.5t103.5 -21v553z" />
    <glyph glyph-name="afii10073" unicode="&#x437;" horiz-adv-x="498" 
d="M153 451q21 -1 38 -1t32 3t29 10.5t29 20.5q39 33 39 93q0 19 -8 35.5t-21 28.5t-30 19t-36 7q-32 0 -58.5 -21t-33.5 -53l-33 6q9 45 44.5 72.5t80.5 27.5q25 0 48.5 -9.5t41 -26t28 -39t10.5 -47.5q0 -23 -6.5 -45t-18.5 -41t-28.5 -33t-36.5 -21q34 -10 64 -30.5
t52.5 -49.5t35.5 -65t13 -76q0 -44 -17 -83.5t-46.5 -68.5t-68.5 -46t-83 -17q-40 0 -75.5 13t-63.5 36.5t-47.5 56t-26.5 71.5l31 6q6 -32 22.5 -60t40.5 -48t54 -31.5t63 -11.5q37 0 71 14.5t59 39t40 58t15 71.5q0 33 -9.5 62t-26.5 53t-39.5 42t-49.5 30t-52 14t-66 2
v32v0z" />
    <glyph glyph-name="afii10074" unicode="&#x438;" horiz-adv-x="395" 
d="M31 700v-592l269 592h13v-700h-30v590l-271 -590v0h-12v700h31z" />
    <glyph glyph-name="afii10075" unicode="&#x439;" horiz-adv-x="356" 
d="M270 847q0 -45 -31 -76q-32 -32 -77 -32q-21 0 -41 8.5t-36 23.5q-30 32 -30 76h32q0 -31 22 -53q11 -11 25 -17t28 -6q30 0 55 23q21 23 21 53h32zM0 700v-700h12v0l271 590v-590h30v700h-13l-269 -583v583h-31z" />
    <glyph glyph-name="afii10076" unicode="&#x43a;" horiz-adv-x="403" 
d="M344 0h-48l-142 141q-58 -26 -121 -26v-115h-33v700h33v-552q55 0 103.5 21t84.5 57t57 84.5t21 103.5v286h32v-286q0 -80 -39 -148t-108 -109z" />
    <glyph glyph-name="afii10077" unicode="&#x43b;" horiz-adv-x="369" 
d="M296 700v-700h-32v670q-47 0 -89 -19t-74 -50.5t-50.5 -74t-18.5 -88.5v-438h-32v438q0 55 20 102.5t55.5 83t83.5 56t105 20.5h32z" />
    <glyph glyph-name="afii10078" unicode="&#x43c;" horiz-adv-x="571" 
d="M499 700v-700h-32v547q-55 -124 -109 -246t-108 -246q-55 124 -109 246t-108 246v-547h-33v699l250 -564z" />
    <glyph glyph-name="afii10079" unicode="&#x43d;" horiz-adv-x="352" 
d="M250 0v492h-218v-492h-32v700h32v-176h218v176h32v-700h-32z" />
    <glyph glyph-name="afii10080" unicode="&#x43e;" horiz-adv-x="681" 
d="M0 395q0 63 24 118.5t66 97t97.5 65.5t118.5 24t118.5 -24t97 -65.5t65.5 -97t24 -118.5t-24 -118.5t-65.5 -96.5t-97 -65t-118.5 -24t-118.5 23.5t-97.5 65t-66 97t-24 118.5zM32 395q0 -56 21.5 -106t59 -87t87.5 -58.5t106 -21.5t105.5 21.5t86.5 59t58.5 87
t21.5 105.5t-21.5 105.5t-58.5 87t-86.5 59t-105.5 21.5t-106 -21.5t-87.5 -58.5t-59 -87t-21.5 -106zM41 31h528v-31h-528v31z" />
    <glyph glyph-name="afii10081" unicode="&#x43f;" horiz-adv-x="442" 
d="M0 92v606l165 1q56 0 95.5 -15.5t64 -42.5t35.5 -62t11 -74v-413h-32v403q0 35 -10 66t-31 54t-54 37t-79 15l-132 -1v-574h-33zM0 32h370v-32h-370v32z" />
    <glyph glyph-name="afii10082" unicode="&#x440;" horiz-adv-x="457" 
d="M382 350q0 -72 -27.5 -136t-75 -111t-111.5 -75t-137 -28v-237h-31v937h32q72 0 136 -27.5t111.5 -75t75 -111t27.5 -136.5zM31 33q66 0 124 25t101 68t68 101t25 123q0 66 -25 124t-68 101t-100.5 68t-123.5 25z" />
    <glyph glyph-name="afii10083" unicode="&#x441;" horiz-adv-x="588" 
d="M305 700q60 0 116 -23.5t99 -65.5l-22 -23q-38 38 -88.5 59t-104.5 21q-56 0 -105.5 -22t-86.5 -59t-59 -87t-22 -105q0 -56 22 -105.5t59 -86.5t86.5 -58.5t105.5 -21.5q54 0 104.5 20.5t88.5 58.5l22 -22q-43 -42 -99 -65.5t-116 -23.5q-62 0 -117.5 24.5t-97 66
t-66 96.5t-24.5 117q0 61 24.5 116.5t66.5 97.5t97 66.5t117 24.5zM66 33h453v-33h-453v33z" />
    <glyph glyph-name="afii10084" unicode="&#x442;" horiz-adv-x="365" 
d="M290 700v-33h-129v-667h-32v667h-129v33h290z" />
    <glyph glyph-name="afii10085" unicode="&#x443;" horiz-adv-x="452" 
d="M379 701v-589q0 -72 -27.5 -136t-75 -112t-111.5 -75.5t-136 -27.5v33q49 0 95.5 14.5t85.5 41.5t69 65t47 85q-68 2 -127 29.5t-103.5 73.5t-70 106t-25.5 128v364h33v-358q0 -64 24 -119.5t65.5 -97t97 -65t119.5 -23.5q8 35 8 74v589h32z" />
    <glyph glyph-name="afii10086" unicode="&#x444;" horiz-adv-x="462" 
d="M186 145q-35 0 -66 14.5t-54.5 39t-37 57.5t-13.5 69q0 38 12.5 71t35 57.5t54 39.5t69.5 17v189h32v-189q38 -2 69.5 -17t54 -39.5t35 -57.5t12.5 -71q0 -36 -13.5 -69t-37 -57.5t-54.5 -39t-66 -14.5v-145h-32v145zM218 177q30 1 56 13t44.5 32t28.5 46.5t9 56.5
q-1 36 -12.5 64t-30.5 47t-43.5 29.5t-51.5 13.5v-302zM186 479q-27 -3 -51.5 -13.5t-44 -29.5t-31 -47t-12.5 -64q-1 -30 9.5 -56.5t29 -46.5t44.5 -32t56 -13v302z" />
    <glyph glyph-name="afii10087" unicode="&#x445;" horiz-adv-x="542" 
d="M473 700l-221 -439l129 -261h-36l-111 224l-112 -224h-35l129 261l-216 439h36l199 -403l202 403h36z" />
    <glyph glyph-name="afii10088" unicode="&#x446;" horiz-adv-x="408" 
d="M0 0v700h33v-668h218v668h32v-667h64v-176h-32v143h-315z" />
    <glyph glyph-name="afii10089" unicode="&#x447;" horiz-adv-x="459" 
d="M32 548q0 -35 10 -66t31 -54t54 -37t79 -15h115v322h33v-698h-33v344h-115q-56 0 -95.5 15.5t-64 42.5t-35.5 62t-11 74v160h32v-150z" />
    <glyph glyph-name="afii10090" unicode="&#x448;" horiz-adv-x="613" 
d="M3 700h33v-668h218v668h33v-668h218v668h32l1 -700h-535v700z" />
    <glyph glyph-name="afii10091" unicode="&#x449;" horiz-adv-x="662" 
d="M3 700h33v-668h218v668h33v-668h218v668h32v-667h64v-176h-32v143h-566v700z" />
    <glyph glyph-name="afii10092" unicode="&#x44a;" horiz-adv-x="341" 
d="M151 123q29 0 49.5 20.5t20.5 49.5t-20.5 49.5t-49.5 21.5v-141zM30 33h276v-33h-276v33zM151 295q21 0 39.5 -8t33 -22t22.5 -32.5t8 -39.5t-8 -39.5t-22.5 -32.5t-33 -22t-39.5 -8h-31v575h-120v33h151v-404z" />
    <glyph glyph-name="afii10093" unicode="&#x44b;" horiz-adv-x="363" 
d="M32 27q30 1 55.5 13t44 32t29 46.5t10.5 56.5q0 64 -37.5 105t-101.5 49v-302zM0 699h32v-344q38 -2 69.5 -16t54 -38t35 -56t12.5 -70q0 -36 -13.5 -68t-37 -56t-54.5 -37.5t-66 -13.5h-32v700v-1zM262 696h30v-700h-30v700z" />
    <glyph glyph-name="afii10094" unicode="&#x44c;" horiz-adv-x="276" 
d="M32 27q30 1 55.5 13t44 32t29 46.5t10.5 56.5q0 32 -11 59t-30 47.5t-44.5 32t-53.5 13.5v-300zM0 699h32v-345q38 -2 69.5 -16t54 -37.5t35 -55.5t12.5 -70q0 -36 -13.5 -68t-37 -56t-54.5 -37.5t-66 -13.5h-32v700v-1z" />
    <glyph glyph-name="afii10095" unicode="&#x44d;" horiz-adv-x="422" 
d="M47 379h270q-5 50 -24 94q-25 58 -68.5 101.5t-101 68.5t-123.5 25v32q72 0 136 -27.5t111.5 -75t75 -111.5t27.5 -136t-27.5 -136t-75 -111.5t-111.5 -75t-136 -27.5v32q66 0 123.5 25t101 68.5t68.5 100.5q24 57 25 122h-271v31z" />
    <glyph glyph-name="afii10096" unicode="&#x44e;" horiz-adv-x="892" 
d="M33 0h-33v700h33l1 -322h70q4 56 26 108q28 64 75.5 111.5t111.5 75t136 27.5t136 -27.5t112 -75t75.5 -111.5t27.5 -136t-27.5 -136t-75.5 -111.5t-112 -75t-136 -27.5t-136 27.5t-111.5 75t-75.5 111.5q-27 62 -27 132h-69zM135 350q0 -66 25 -123.5t68.5 -101
t101 -68.5t123.5 -25t123.5 25t101 68.5t68.5 101t25 123.5t-25 123.5t-68.5 101t-101 68.5t-123.5 25t-123.5 -25t-101 -68.5t-68.5 -101t-25 -123.5z" />
    <glyph glyph-name="afii10097" unicode="&#x44f;" horiz-adv-x="369" 
d="M198 519q-17 15 -26.5 35.5t-9.5 43.5q0 21 8 39.5t22 32.5t32.5 22t39.5 8h32v-700h-32v495h-4q-47 0 -88.5 -19t-72.5 -50.5t-49 -74t-18 -88.5v-263h-32v263q0 45 14.5 86.5t41 75.5t63 58.5t79.5 35.5zM194 598q0 -28 20.5 -50t49.5 -20v140q-29 -1 -49.5 -21
t-20.5 -49z" />
    <glyph glyph-name="afii10071" unicode="&#x451;" horiz-adv-x="323" 
d="M255 667h-223v-143h143v-33h-143v-459h220v-32h-252v700h255v-33zM133 815v-78h-31v78h31zM193 816v-79h-32v79h32z" />
    <glyph glyph-name="afii10101" unicode="&#x454;" horiz-adv-x="422" 
d="M303 348h-271q1 -65 25 -122q25 -57 68.5 -100.5t101 -68.5t123.5 -25v-32q-72 0 -136 27.5t-111.5 75t-75 111.5t-27.5 136t27.5 136t75 111.5t111.5 75t136 27.5v-32q-66 0 -123.5 -25t-101 -68.5t-68.5 -101.5q-19 -44 -24 -94h270v-31z" />
    <glyph glyph-name="afii10103" unicode="&#x456;" horiz-adv-x="112" 
d="M0 698h32v-698h-32v698zM0 874h32v-82h-32v82z" />
    <glyph glyph-name="afii10104" unicode="&#x457;" horiz-adv-x="112" 
d="M32 699v-699h-32v699h32zM1 815v-78h-31v78h31zM61 816v-79h-32v79h32z" />
    <glyph glyph-name="afii10110" unicode="&#x45e;" horiz-adv-x="452" 
d="M379 701v-589q0 -72 -27.5 -136t-75 -112t-111.5 -75.5t-136 -27.5v33q49 0 95.5 14.5t85.5 41.5t69 65t47 85q-68 2 -127 29.5t-103.5 73.5t-70 106t-25.5 128v364h33v-358q0 -64 24 -119.5t65.5 -97t97 -65t119.5 -23.5q8 35 8 74v589h32zM301 830q0 -45 -31 -76
q-32 -32 -77 -32q-21 0 -41 8.5t-36 23.5q-30 32 -30 76h32q0 -31 22 -53q11 -11 25 -17t28 -6q30 0 55 23q21 23 21 53h32z" />
    <glyph glyph-name="afii10146" unicode="&#x462;" horiz-adv-x="611" 
d="M251 668h-218v-668h-33v700h283v-172q59 -3 108 -23.5t83.5 -55.5t53.5 -82.5t19 -104.5q0 -54 -21 -102t-57 -84t-84 -56.5t-102 -20.5h-32v669zM283 31q47 0 89.5 18t74 49.5t50 73.5t18.5 90t-17 90.5t-47.5 74t-73.5 50t-94 18.5v-464z" />
    <glyph glyph-name="afii10194" unicode="&#x463;" horiz-adv-x="375" 
d="M232 583v-33h-101v-196q38 -2 69.5 -16t54 -37.5t35 -55.5t12.5 -70q0 -36 -13.5 -68t-37 -56t-54.5 -37.5t-66 -13.5h-32v550h-98v33h98v116h32v-116h101zM131 27q30 1 55.5 13t44 32t29 46.5t10.5 56.5q0 32 -11 59t-30 47.5t-44.5 32t-53.5 13.5v-300z" />
    <glyph glyph-name="afii10147" unicode="&#x472;" horiz-adv-x="776" 
d="M0 350q0 72 27.5 136t75 111.5t111.5 75t136 27.5t136 -27.5t112 -75t75.5 -111.5t27.5 -136t-27.5 -136t-75.5 -111.5t-112 -75t-136 -27.5t-136 27.5t-111.5 75t-75 111.5t-27.5 136zM57 226q25 -57 68.5 -100.5t101 -68.5t123.5 -25t123.5 25t101 68.5t68.5 100.5
q23 53 25 113q-20 -24 -54 -34.5t-70 -11.5q-31 -1 -56 2.5t-47 12.5q-74 33 -120 50.5t-73.5 25.5t-42 9.5t-24.5 1.5q-55 -2 -94.5 -20.5t-53.5 -57.5q5 -48 24 -91zM643 473q-25 58 -68.5 101.5t-101 68.5t-123.5 25t-123.5 -25t-101 -68.5t-68.5 -101.5
q-22 -50 -25 -106q24 27 59 41.5t85 16.5q37 0 73 -9.5t71 -23.5t69 -29.5t68 -27.5q37 -14 83 -14q40 1 75.5 16t50.5 50q-5 45 -23 86z" />
    <glyph glyph-name="afii10195" unicode="&#x473;" horiz-adv-x="681" 
d="M0 395q0 63 24 118.5t66 97t97.5 65.5t118.5 24t118.5 -24t97 -65.5t65.5 -97t24 -118.5t-24 -118.5t-65.5 -96.5t-97 -65t-118.5 -24t-118.5 23.5t-97.5 65t-66 97t-24 118.5zM32 395v-2q39 58 119 67q33 2 64.5 -7t63 -23t62.5 -30t61 -28q33 -14 74 -12
q31 3 58.5 17.5t41.5 45.5q-4 41 -20 77q-21 50 -58 87.5t-86.5 59t-105.5 21.5t-106 -21.5t-87.5 -58.5t-59 -87t-21.5 -106zM53 289q22 -50 59.5 -87t87.5 -58.5t106 -21.5t105.5 21.5t86.5 59t58 86.5q18 40 21 84q-17 -20 -42.5 -30.5t-52.5 -12.5t-52.5 2.5t-45.5 12.5
q-67 33 -107 50.5t-63.5 25.5t-35.5 9t-21 1q-45 -4 -76.5 -26t-44.5 -60q5 -29 17 -56zM41 31h528v-31h-528v31z" />
    <glyph glyph-name="afii10148" unicode="&#x474;" horiz-adv-x="601" 
d="M564 671q-29 -18 -49.5 -37t-37 -42t-30 -51.5t-26.5 -65.5l-171 -475l-250 700h34q26 -75 50.5 -143t47.5 -131q19 -53 38.5 -106t36 -98t28.5 -78.5t17 -47.5q8 20 21 57t28.5 83t33.5 97.5t36 100.5q18 47 33 85.5t34 71t44.5 58.5t64.5 49z" />
    <glyph glyph-name="afii10196" unicode="&#x475;" horiz-adv-x="601" 
d="M564 671q-29 -18 -49.5 -37t-37 -42t-30 -51.5t-26.5 -65.5l-171 -475l-250 700h34q26 -75 50.5 -143t47.5 -131q19 -53 38.5 -106t36 -98t28.5 -78.5t17 -47.5q8 20 21 57t28.5 83t33.5 97.5t36 100.5q18 47 33 85.5t34 71t44.5 58.5t64.5 49z" />
    <glyph glyph-name="afii10050" unicode="&#x490;" 
d="M224 700v121h32v-153h-224v-668h-32v700h224z" />
    <glyph glyph-name="afii10098" unicode="&#x491;" 
d="M224 700v121h32v-153h-224v-668h-32v700h224z" />
    <glyph glyph-name="uni0492" unicode="&#x492;" horiz-adv-x="431" 
d="M0 493v32h100v175h256v-32h-224v-143h141v-32h-141v-493h-32v493h-100z" />
    <glyph glyph-name="uni0493" unicode="&#x493;" horiz-adv-x="431" 
d="M0 493v32h100v175h256v-32h-224v-143h141v-32h-141v-493h-32v493h-100z" />
    <glyph glyph-name="uni0494" unicode="&#x494;" 
d="M256 668h-224v-209q45 -5 83.5 -24.5t68 -51t47.5 -73.5t23 -92q6 -60 -8.5 -120t-46.5 -108.5t-80.5 -80t-109.5 -35.5l-2 29q54 4 96.5 33.5t70.5 73.5t40.5 98t7.5 107q-10 88 -60 146.5t-130 67.5v-429h-32v700h256v-32z" />
    <glyph glyph-name="uni0495" unicode="&#x495;" 
d="M256 668h-224v-209q45 -5 83.5 -24.5t68 -51t47.5 -73.5t23 -92q6 -60 -8.5 -120t-46.5 -108.5t-80.5 -80t-109.5 -35.5l-2 29q54 4 96.5 33.5t70.5 73.5t40.5 98t7.5 107q-10 88 -60 146.5t-130 67.5v-429h-32v700h256v-32z" />
    <glyph glyph-name="uni0496" unicode="&#x496;" horiz-adv-x="750" 
d="M694 33v-176h-32v143h-50v286q0 55 -21 103.5t-57.5 85t-85 57.5t-103.5 21v-553h-32v553q-55 0 -103.5 -21t-85 -57.5t-57.5 -85t-21 -103.5v-286h-32v286q0 39 10.5 77t29.5 71t46 61t61 48l-160 157h49l141 -141q29 14 59.5 20t62.5 6v115h32v-115q32 0 62.5 -6
t59.5 -20l141 141h49l-160 -157q34 -20 61 -48t46 -61t29.5 -71t10.5 -77v-253h50z" />
    <glyph glyph-name="uni0497" unicode="&#x497;" horiz-adv-x="719" 
d="M684 33v-176h-32v143h-44l-141 141q-29 -14 -59.5 -20t-62.5 -6v-115h-32v115q-32 0 -62.5 6t-59.5 20l-141 -141h-49l160 157q-34 20 -61 48t-46 61t-29.5 71t-10.5 77v286h32v-286q0 -55 21 -103.5t57.5 -85t85 -57.5t103.5 -21v553h32v-553q55 0 103.5 21t85 57.5
t57.5 85t21 103.5v286h32v-286q0 -39 -10.5 -77t-29.5 -71t-46 -61t-61 -48l125 -124h62z" />
    <glyph glyph-name="uni0498" unicode="&#x498;" horiz-adv-x="498" 
d="M209 1q-39 0 -74 13.5t-62.5 37t-46.5 55.5t-26 71l31 6q6 -32 22.5 -60t40.5 -48t54 -31.5t63 -11.5q37 0 71 14.5t59 39t40 58t15 71.5q0 33 -9.5 62t-26.5 53t-39.5 42t-49.5 30t-52 14t-66 2v32q21 -1 38 -1t32 3t29 10.5t29 20.5q39 33 39 93q0 19 -8 35.5t-21 28.5
t-30 19t-36 7q-32 0 -58.5 -21t-33.5 -53l-33 6q9 45 44.5 72.5t80.5 27.5q25 0 48.5 -9.5t41 -26t28 -39t10.5 -47.5q0 -23 -6.5 -45t-18.5 -41t-28.5 -33t-36.5 -21q34 -10 64 -30.5t52.5 -49.5t35.5 -65t13 -76q0 -38 -12.5 -72t-35 -62t-53 -47.5t-65.5 -27.5
q12 -11 21 -26q11 -18 14 -39t-3 -42q-5 -20 -18 -37t-31.5 -27.5t-39.5 -14t-42 2.5l8 33q15 -4 29.5 -2.5t27 8.5t22 19t13.5 27q8 30 -7.5 56t-46.5 34v2z" />
    <glyph glyph-name="uni0499" unicode="&#x499;" horiz-adv-x="498" 
d="M209 1q-39 0 -74 13.5t-62.5 37t-46.5 55.5t-26 71l31 6q6 -32 22.5 -60t40.5 -48t54 -31.5t63 -11.5q37 0 71 14.5t59 39t40 58t15 71.5q0 33 -9.5 62t-26.5 53t-39.5 42t-49.5 30t-52 14t-66 2v32q21 -1 38 -1t32 3t29 10.5t29 20.5q39 33 39 93q0 19 -8 35.5t-21 28.5
t-30 19t-36 7q-32 0 -58.5 -21t-33.5 -53l-33 6q9 45 44.5 72.5t80.5 27.5q25 0 48.5 -9.5t41 -26t28 -39t10.5 -47.5q0 -23 -6.5 -45t-18.5 -41t-28.5 -33t-36.5 -21q34 -10 64 -30.5t52.5 -49.5t35.5 -65t13 -76q0 -38 -12.5 -72t-35 -62t-53 -47.5t-65.5 -27.5
q12 -11 21 -26q11 -18 14 -39t-3 -42q-5 -20 -18 -37t-31.5 -27.5t-39.5 -14t-42 2.5l8 33q15 -4 29.5 -2.5t27 8.5t22 19t13.5 27q8 30 -7.5 56t-46.5 35v1z" />
    <glyph glyph-name="uni049A" unicode="&#x49a;" horiz-adv-x="437" 
d="M381 33v-176h-32v143h-50v286q0 55 -21 103.5t-57.5 85t-85 57.5t-103.5 21v-553h-32v700h32v-115q32 0 62.5 -6t59.5 -20l141 141h49l-160 -157q34 -20 61 -48t46 -61t29.5 -71t10.5 -77v-253h50z" />
    <glyph glyph-name="uni049B" unicode="&#x49b;" horiz-adv-x="418" 
d="M371 33v-176h-32v143h-44l-141 141q-29 -14 -59.5 -20t-62.5 -6v-115h-32v700h32v-553q55 0 103.5 21t85 57.5t57.5 85t21 103.5v286h32v-286q0 -39 -10.5 -77t-29.5 -71t-46 -61t-61 -48l125 -124h62z" />
    <glyph glyph-name="uni04A0" unicode="&#x4a0;" horiz-adv-x="535" 
d="M129 667h-129v33h161v-115q32 0 62.5 -6t59.5 -20l141 141h49l-160 -157q34 -20 61 -48t46 -61t29.5 -71t10.5 -77v-286h-32v286q0 55 -21 103.5t-57.5 85t-85 57.5t-103.5 21v-553h-32v667z" />
    <glyph glyph-name="uni04A1" unicode="&#x4a1;" horiz-adv-x="531" 
d="M128 667h-128v33h161v-552q55 0 103.5 21t84.5 57t57 84.5t21 103.5v286h32v-286q0 -80 -39 -148t-108 -109l160 -157h-48l-142 141q-58 -26 -121 -26v-115h-33v667z" />
    <glyph glyph-name="uni04A2" unicode="&#x4a2;" horiz-adv-x="410" 
d="M283 33h50v-176h-32v143h-50v101h-218v-101h-33v700h33v-567h218v567h32v-662v-5z" />
    <glyph glyph-name="uni04A3" unicode="&#x4a3;" horiz-adv-x="399" 
d="M250 492h-218v-492h-32v700h32v-176h218v176h32v-667h51v-176h-32v143h-51v492z" />
    <glyph glyph-name="uni04A4" unicode="&#x4a4;" horiz-adv-x="492" 
d="M283 0h-32v101h-218v-101h-33v700h33v-567h218v567h161v-33h-128z" />
    <glyph glyph-name="uni04A5" unicode="&#x4a5;" horiz-adv-x="502" 
d="M282 0h-32v492h-218v-492h-32v700h32v-176h218v176h161v-33h-129v-667z" />
    <glyph glyph-name="uni04AA" unicode="&#x4aa;" horiz-adv-x="422" 
d="M0 350q0 72 27.5 136t75 111.5t111.5 75t136 27.5v-32q-66 0 -123.5 -25t-101 -68.5t-68.5 -101t-25 -123.5t25 -123.5t68.5 -101t101 -68.5t123.5 -25v-32q-49 0 -95 12q8 -14 11 -32q3 -21 -3 -42q-5 -20 -18 -37t-31.5 -27.5t-39.5 -14t-42 2.5l8 33q15 -4 29.5 -2.5
t27 8.5t22 19t13.5 27q8 30 -7.5 56t-46.5 40q-41 25 -76 59q-47 48 -74.5 112t-27.5 136z" />
    <glyph glyph-name="uni04AB" unicode="&#x4ab;" horiz-adv-x="588" 
d="M305 700q60 0 116 -23.5t99 -65.5l-22 -23q-38 38 -88.5 59t-104.5 21q-56 0 -105.5 -22t-86.5 -59t-59 -87t-22 -105q0 -56 22 -105.5t59 -86.5t86.5 -58.5t105.5 -21.5q54 0 104.5 20.5t88.5 58.5l22 -22q-43 -42 -99 -66q-44 -18 -89 -22q8 -9 14 -19q11 -18 14 -39
t-3 -42q-5 -20 -18 -37t-31.5 -27.5t-39.5 -14t-42 2.5l8 33q15 -4 29.5 -2.5t27 8.5t22 19t13.5 27q8 30 -7.5 56t-46.5 34v1q-44 5 -85 23q-55 25 -96.5 66.5t-66 96.5t-24.5 117q0 61 24.5 116.5t66.5 97.5t97 66.5t117 24.5zM306 0v33h-240v-33h240zM381 33h138v-33
h-139z" />
    <glyph glyph-name="uni04AE" unicode="&#x4ae;" horiz-adv-x="586" 
d="M272 99v-99h-32l-1 99l-239 601h34q55 -138 101 -252q19 -49 38.5 -97.5t36 -90t29 -72t17.5 -42.5q5 12 17 42.5t28.5 72t35.5 90t39 97.5q46 114 101 252h35z" />
    <glyph glyph-name="uni04AF" unicode="&#x4af;" horiz-adv-x="586" 
d="M272 99v-258h-32l-1 258l-239 601h34q55 -138 101 -252q19 -49 38.5 -97.5t36 -90t29 -72t17.5 -42.5q5 12 17 42.5t28.5 72t35.5 90t39 97.5q46 114 101 252h35z" />
    <glyph glyph-name="uni04B0" unicode="&#x4b0;" horiz-adv-x="586" 
d="M131 139h92l-223 561h34q55 -138 101 -252q19 -49 38.5 -97.5t36 -90t29 -72t17.5 -42.5q5 12 17 42.5t28.5 72t35.5 90t39 97.5q46 114 101 252h35l-224 -561h102v-32h-119l1 -107h-32l-1 107l-108 1v31z" />
    <glyph glyph-name="uni04B1" unicode="&#x4b1;" horiz-adv-x="586" 
d="M125 31h114v68l-239 601h34q55 -138 101 -252q19 -49 38.5 -97.5t36 -90t29 -72t17.5 -42.5q5 12 17 42.5t28.5 72t35.5 90t39 97.5q46 114 101 252h35l-240 -601v-68l112 1v-32h-112v-159h-32l-1 159h-114v31z" />
    <glyph glyph-name="uni04B2" unicode="&#x4b2;" horiz-adv-x="563" 
d="M513 33v-176h-32v143h-43l-198 403l-203 -403h-36l221 440l-129 260h36l111 -223l112 223h36l-130 -260l200 -407h55z" />
    <glyph glyph-name="uni04B3" unicode="&#x4b3;" horiz-adv-x="542" 
d="M234 224l-112 -224h-35l129 261l-216 439h36l199 -403l202 403h36l-221 -439l112 -227h66v-176h-32v143h-54z" />
    <glyph glyph-name="uni04B6" unicode="&#x4b6;" horiz-adv-x="490" 
d="M351 0l-1 396q-26 -28 -65 -42.5t-81 -13.5q-42 0 -77 14.5t-60.5 40t-39.5 61t-14 77.5v167h32v-165q0 -35 11.5 -65t32 -51.5t49 -34.5t62.5 -14q26 -1 51.5 5t46 18.5t35 31t17.5 43.5v232h32v-667h51v-176h-32v143h-51h1z" />
    <glyph glyph-name="uni04B7" unicode="&#x4b7;" horiz-adv-x="490" 
d="M351 0l-1 396q-26 -28 -65 -42.5t-81 -13.5q-42 0 -77 14.5t-60.5 40t-39.5 61t-14 77.5v167h32v-165q0 -35 11.5 -65t32 -51.5t49 -34.5t62.5 -14q26 -1 51.5 5t46 18.5t35 31t17.5 43.5v232h32v-667h51v-176h-32v143h-51h1z" />
    <glyph glyph-name="uni04BA" unicode="&#x4ba;" horiz-adv-x="457" 
d="M33 406q26 28 65 42.5t81 13.5q42 0 77 -14.5t60.5 -40t39.5 -61t14 -77.5v-269h-32v267q0 35 -11.5 65t-32 51.5t-49 34.5t-62.5 14q-26 1 -51.5 -5t-46 -18.5t-35 -31t-17.5 -43.5v-334h-32v700h32v-294z" />
    <glyph glyph-name="uni04BB" unicode="&#x4bb;" horiz-adv-x="459" 
d="M0 32h415v-32h-415v32zM32 589q0 -35 10 -66t31 -54t54 -37t79 -15h115v281h33v-606h-33v293h-115q-56 0 -95.5 15.5t-64 42.5t-35.5 62t-11 74v119h32v-109z" />
    <glyph glyph-name="uni04C0" unicode="&#x4c0;" horiz-adv-x="141" 
d="M0 696h30v-700h-30v700z" />
    <glyph glyph-name="uni04CB" unicode="&#x4cb;" horiz-adv-x="454" 
d="M338 33v363q-26 -28 -65 -42.5t-81 -13.5q-42 0 -77 14.5t-60.5 40t-39.5 61t-14 77.5v167h32v-165q0 -35 11.5 -65t32 -51.5t49 -34.5t62.5 -14q26 -1 51.5 5t46 18.5t35 31t17.5 43.5v232h32l1 -700h-59v-143h-32v176h58z" />
    <glyph glyph-name="uni04CC" unicode="&#x4cc;" horiz-adv-x="454" 
d="M338 33v363q-26 -28 -65 -42.5t-81 -13.5q-42 0 -77 14.5t-60.5 40t-39.5 61t-14 77.5v167h32v-165q0 -35 11.5 -65t32 -51.5t49 -34.5t62.5 -14q26 -1 51.5 5t46 18.5t35 31t17.5 43.5v232h32l1 -700h-59v-143h-32v176h58z" />
    <glyph glyph-name="uni04CF" unicode="&#x4cf;" horiz-adv-x="141" 
d="M0 696h30v-700h-30v700z" />
    <glyph glyph-name="uni04D0" unicode="&#x4d0;" horiz-adv-x="580" 
d="M430 102h-359l-36 -102h-35l250 701l251 -701h-35zM418 134q-42 118 -84 235.5t-84 235.5q-45 -118 -85.5 -235.5t-82.5 -235.5h336zM356 847q0 -45 -31 -76q-32 -32 -77 -32q-21 0 -41 8.5t-36 23.5q-30 32 -30 76h32q0 -31 22 -53q11 -11 25 -17t28 -6q30 0 55 23
q21 23 21 53h32z" />
    <glyph glyph-name="uni04D1" unicode="&#x4d1;" horiz-adv-x="373" 
d="M264 700q-57 0 -105 -20.5t-83.5 -56t-55.5 -83t-20 -102.5v-438h32v314h232v-314h32v700h-32zM32 438q0 46 18.5 88.5t50.5 74t74 50.5t89 19v-324h-232v92zM283 847q0 -45 -31 -76q-32 -32 -77 -32q-21 0 -41 8.5t-36 23.5q-30 32 -30 76h32q0 -31 22 -53
q11 -11 25 -17t28 -6q30 0 55 23q21 23 21 53h32z" />
    <glyph glyph-name="uni04D2" unicode="&#x4d2;" horiz-adv-x="580" 
d="M430 102h-359l-36 -102h-35l250 701l251 -701h-35zM418 134q-42 118 -84 235.5t-84 235.5q-45 -118 -85.5 -235.5t-82.5 -235.5h336zM233 815v-78h-31v78h31zM293 816v-79h-32v79h32z" />
    <glyph glyph-name="uni04D3" unicode="&#x4d3;" horiz-adv-x="373" 
d="M264 700q-57 0 -105 -20.5t-83.5 -56t-55.5 -83t-20 -102.5v-438h32v314h232v-314h32v700h-32zM32 438q0 46 18.5 88.5t50.5 74t74 50.5t89 19v-324h-232v92zM194 815v-78h-31v78h31zM254 816v-79h-32v79h32z" />
    <glyph glyph-name="uni04D4" unicode="&#x4d4;" horiz-adv-x="578" 
d="M503 667h-223v-143h142v-32h-142v-459h220v-33h-253v101h-177l-36 -101h-34l247 700h256v-33zM82 134h165v464z" />
    <glyph glyph-name="uni04D5" unicode="&#x4d5;" horiz-adv-x="605" 
d="M520 667h-224v-534h143v-32h-143v-68h220v-33h-252v314h-232v-314h-32v438q0 55 20 102.5t55.5 83t83.5 56t105 20.5l256 -1v-32zM32 346h232v324q-47 0 -89 -19t-74 -50.5t-50.5 -74t-18.5 -88.5v-92z" />
    <glyph glyph-name="uni04D6" unicode="&#x4d6;" 
d="M256 667h-223v-534h142v-32h-142v-68h219v-33h-252v700l256 -1v-32zM239 862q0 -45 -31 -76q-32 -32 -77 -32q-21 0 -41 8.5t-36 23.5q-30 32 -30 76h32q0 -31 22 -53q11 -11 25 -17t28 -6q30 0 55 23q21 23 21 53h32z" />
    <glyph glyph-name="uni04D7" unicode="&#x4d7;" horiz-adv-x="326" 
d="M255 667h-223v-143h143v-33h-143v-459h220v-32h-252v700h255v-33zM241 865q0 -45 -31 -76q-32 -32 -77 -32q-21 0 -41 8.5t-36 23.5q-30 32 -30 76h32q0 -31 22 -53q11 -11 25 -17t28 -6q30 0 55 23q21 23 21 53h32z" />
    <glyph glyph-name="uni04D8" unicode="&#x4d8;" horiz-adv-x="776" 
d="M690 317v-32l-651 1q13 -58 42 -105t70 -80t92 -51t107 -18q66 0 123.5 25t101 68.5t68.5 101t25 123.5t-25 123.5t-68.5 101t-101 68.5t-123.5 25q-51 0 -97 -15l-11 30q53 17 108 17q72 0 136 -27.5t112 -75t75.5 -111.5t27.5 -136t-27.5 -136t-75.5 -111.5t-112 -75
t-136 -27.5q-69 0 -129 24t-106.5 66t-76 100t-36.5 127h688z" />
    <glyph glyph-name="afii10846" unicode="&#x4d9;" horiz-adv-x="681" 
d="M578 395q0 56 -21.5 105.5t-58.5 87t-86.5 59t-105.5 21.5q-33 0 -63.5 -7.5t-58.5 -21.5l-23 25q32 17 69 26.5t76 9.5q63 0 118.5 -24t97 -65.5t65.5 -97t24 -118.5t-24 -118.5t-65.5 -96.5t-97 -65t-118.5 -24q-59 0 -112.5 19t-95 55t-68 87t-29.5 115h575
q1 7 1.5 13.5t0.5 14.5zM306 122q48 0 91.5 16.5t78.5 45t59.5 67.5t35.5 84l-533 1q9 -48 33 -87t59.5 -67.5t80.5 -44t95 -15.5zM41 31h528v-31h-528v31z" />
    <glyph glyph-name="uni04DC" unicode="&#x4dc;" horiz-adv-x="719" 
d="M313 0h32v553q55 0 103.5 -21t85 -57.5t57.5 -85t21 -103.5v-286h32v286q0 39 -10.5 77t-29.5 71t-46 61t-61 48l160 157h-49l-141 -141q-29 14 -59.5 20t-62.5 6v115h-32v-115q-32 0 -62.5 -6t-59.5 -20l-141 141h-49l160 -157q-34 -20 -61 -48t-46 -61t-29.5 -71
t-10.5 -77v-286h32v286q0 55 21 103.5t57.5 85t85 57.5t103.5 21v-553zM312 814v-78h-31v78h31zM372 815v-79h-32v79h32z" />
    <glyph glyph-name="uni04DD" unicode="&#x4dd;" horiz-adv-x="719" 
d="M313 700h32v-553q55 0 103.5 21t85 57.5t57.5 85t21 103.5v286h32v-286q0 -39 -10.5 -77t-29.5 -71t-46 -61t-61 -48l160 -157h-49l-141 141q-29 -14 -59.5 -20t-62.5 -6v-115h-32v115q-32 0 -62.5 6t-59.5 20l-141 -141h-49l160 157q-34 20 -61 48t-46 61t-29.5 71
t-10.5 77v286h32v-286q0 -55 21 -103.5t57.5 -85t85 -57.5t103.5 -21v553zM312 814v-78h-31v78h31zM372 815v-79h-32v79h32z" />
    <glyph glyph-name="uni04DE" unicode="&#x4de;" horiz-adv-x="498" 
d="M153 451v-32q41 0 66 -2t52 -14t49.5 -30t39.5 -42t26.5 -53t9.5 -62q0 -38 -15 -71.5t-40 -58t-59 -39t-71 -14.5q-33 0 -63 11.5t-54 31.5t-40.5 48t-22.5 60l-31 -6q7 -39 26.5 -71.5t47.5 -56t63.5 -36.5t75.5 -13q44 0 83 17t68.5 46t46.5 68.5t17 83.5q0 40 -14 76
t-37 65t-53.5 49.5t-64.5 30.5q20 7 37.5 21t30 33t19.5 41t7 45q0 25 -10.5 47.5t-28 39t-41 26t-48.5 9.5q-45 0 -80.5 -27.5t-44.5 -72.5l33 -6q7 32 33.5 53t58.5 21q19 0 36 -7t30 -19t21 -28.5t8 -35.5q0 -60 -39 -93q-15 -13 -29 -20.5t-29 -10.5t-32 -3t-38 1z
M208 814v-78h-31v78h31zM268 815v-79h-32v79h32z" />
    <glyph glyph-name="uni04DF" unicode="&#x4df;" horiz-adv-x="498" 
d="M153 451v-32q41 0 66 -2t52 -14t49.5 -30t39.5 -42t26.5 -53t9.5 -62q0 -38 -15 -71.5t-40 -58t-59 -39t-71 -14.5q-33 0 -63 11.5t-54 31.5t-40.5 48t-22.5 60l-31 -6q7 -39 26.5 -71.5t47.5 -56t63.5 -36.5t75.5 -13q44 0 83 17t68.5 46t46.5 68.5t17 83.5q0 40 -14 76
t-37 65t-53.5 49.5t-64.5 30.5q20 7 37.5 21t30 33t19.5 41t7 45q0 25 -10.5 47.5t-28 39t-41 26t-48.5 9.5q-45 0 -80.5 -27.5t-44.5 -72.5l33 -6q7 32 33.5 53t58.5 21q19 0 36 -7t30 -19t21 -28.5t8 -35.5q0 -60 -39 -93q-15 -13 -29 -20.5t-29 -10.5t-32 -3t-38 1z
M208 814v-78h-31v78h31zM268 815v-79h-32v79h32z" />
    <glyph glyph-name="uni04E2" unicode="&#x4e2;" horiz-adv-x="408" 
d="M13 700v-700h12v0l271 590v-590h30v700h-13l-269 -592v592h-31zM62 761v32h229v-32h-229z" />
    <glyph glyph-name="uni04E3" unicode="&#x4e3;" horiz-adv-x="408" 
d="M13 700v-700h12v0l271 590v-590h30v700h-13l-269 -592v592h-31zM62 761v32h229v-32h-229z" />
    <glyph glyph-name="uni04E4" unicode="&#x4e4;" horiz-adv-x="408" 
d="M13 700v-700h12v0l271 590v-590h30v700h-13l-269 -592v592h-31zM161 814v-78h-31v78h31zM221 815v-79h-32v79h32z" />
    <glyph glyph-name="uni04E5" unicode="&#x4e5;" horiz-adv-x="408" 
d="M13 700v-700h12v0l271 590v-590h30v700h-13l-269 -592v592h-31zM161 814v-78h-31v78h31zM221 815v-79h-32v79h32z" />
    <glyph glyph-name="uni04E6" unicode="&#x4e6;" horiz-adv-x="776" 
d="M0 350q0 72 27.5 136t75 111.5t111.5 75t136 27.5t136 -27.5t112 -75t75.5 -111.5t27.5 -136t-27.5 -136t-75.5 -111.5t-112 -75t-136 -27.5t-136 27.5t-111.5 75t-75 111.5t-27.5 136zM32 350q0 -66 25 -123.5t68.5 -101t101 -68.5t123.5 -25t123.5 25t101 68.5
t68.5 101t25 123.5t-25 123.5t-68.5 101t-101 68.5t-123.5 25t-123.5 -25t-101 -68.5t-68.5 -101t-25 -123.5zM338 813v-78h-31v78h31zM398 814v-79h-32v79h32z" />
    <glyph glyph-name="uni04E7" unicode="&#x4e7;" horiz-adv-x="681" 
d="M0 395q0 63 24 118.5t66 97t97.5 65.5t118.5 24t118.5 -24t97 -65.5t65.5 -97t24 -118.5t-24 -118.5t-65.5 -96.5t-97 -65t-118.5 -24t-118.5 23.5t-97.5 65t-66 97t-24 118.5zM32 395q0 -56 21.5 -106t59 -87t87.5 -58.5t106 -21.5t105.5 21.5t86.5 59t58.5 87
t21.5 105.5t-21.5 105.5t-58.5 87t-86.5 59t-105.5 21.5t-106 -21.5t-87.5 -58.5t-59 -87t-21.5 -106zM41 31h528v-31h-528v31zM293 813v-78h-31v78h31zM353 814v-79h-32v79h32z" />
    <glyph glyph-name="uni04E8" unicode="&#x4e8;" horiz-adv-x="776" 
d="M0 350q0 72 27.5 136t75 111.5t111.5 75t136 27.5t136 -27.5t112 -75t75.5 -111.5t27.5 -136t-27.5 -136t-75.5 -111.5t-112 -75t-136 -27.5t-136 27.5t-111.5 75t-75 111.5t-27.5 136zM57 226q25 -57 68.5 -100.5t101 -68.5t123.5 -25t123.5 25t101 68.5t68.5 100.5
q22 51 24 109h-635q3 -58 25 -109zM643 473q-25 58 -68.5 101.5t-101 68.5t-123.5 25t-123.5 -25t-101 -68.5t-68.5 -101.5q-22 -50 -25 -107h635q-2 57 -24 107z" />
    <glyph glyph-name="uni04E9" unicode="&#x4e9;" horiz-adv-x="681" 
d="M0 395q0 63 24 118.5t66 97t97.5 65.5t118.5 24t118.5 -24t97 -65.5t65.5 -97t24 -118.5t-24 -118.5t-65.5 -96.5t-97 -65t-118.5 -24t-118.5 23.5t-97.5 65t-66 97t-24 118.5zM32 395q0 -56 21.5 -106t59 -87t87.5 -58.5t106 -21.5t105.5 21.5t86.5 59t58.5 87
t21.5 105.5t-21.5 105.5t-58.5 87t-86.5 59t-105.5 21.5t-106 -21.5t-87.5 -58.5t-59 -87t-21.5 -106zM41 31h528v-31h-528v31zM24 410h573v-31h-573v31z" />
    <glyph glyph-name="uni04EC" unicode="&#x4ec;" horiz-adv-x="422" 
d="M47 348h271q-1 -65 -25 -122q-25 -57 -68.5 -100.5t-101 -68.5t-123.5 -25v-32q72 0 136 27.5t111.5 75t75 111.5t27.5 136t-27.5 136t-75 111.5t-111.5 75t-136 27.5v-32q66 0 123.5 -25t101 -68.5t68.5 -101.5q19 -44 24 -94h-270v-31zM161 809v-79h-32v79h32zM101 808
v-78h-31v78h31z" />
    <glyph glyph-name="uni04ED" unicode="&#x4ed;" horiz-adv-x="422" 
d="M47 348h271q-1 -65 -25 -122q-25 -57 -68.5 -100.5t-101 -68.5t-123.5 -25v-32q72 0 136 27.5t111.5 75t75 111.5t27.5 136t-27.5 136t-75 111.5t-111.5 75t-136 27.5v-32q66 0 123.5 -25t101 -68.5t68.5 -101.5q19 -44 24 -94h-270v-31zM161 809v-79h-32v79h32zM101 808
v-78h-31v78h31z" />
    <glyph glyph-name="uni04EE" unicode="&#x4ee;" horiz-adv-x="529" 
d="M172 0l52 131l-226 569h34l210 -524l209 524h35l-280 -700h-34zM131 761v32h229v-32h-229z" />
    <glyph glyph-name="uni04EF" unicode="&#x4ef;" horiz-adv-x="452" 
d="M379 701v-589q0 -72 -27.5 -136t-75 -112t-111.5 -75.5t-136 -27.5v33q49 0 95.5 14.5t85.5 41.5t69 65t47 85q-68 2 -127 29.5t-103.5 73.5t-70 106t-25.5 128v364h33v-358q0 -64 24 -119.5t65.5 -97t97 -65t119.5 -23.5q8 35 8 74v589h32zM79 768v32h229v-32h-229z" />
    <glyph glyph-name="uni04F0" unicode="&#x4f0;" horiz-adv-x="529" 
d="M172 0l52 131l-226 569h34l210 -524l209 524h35l-280 -700h-34zM230 814v-78h-31v78h31zM290 815v-79h-32v79h32z" />
    <glyph glyph-name="uni04F1" unicode="&#x4f1;" horiz-adv-x="452" 
d="M379 701v-589q0 -72 -27.5 -136t-75 -112t-111.5 -75.5t-136 -27.5v33q49 0 95.5 14.5t85.5 41.5t69 65t47 85q-68 2 -127 29.5t-103.5 73.5t-70 106t-25.5 128v364h33v-358q0 -64 24 -119.5t65.5 -97t97 -65t119.5 -23.5q8 35 8 74v589h32zM179 814v-78h-31v78h31z
M239 815v-79h-32v79h32z" />
    <glyph glyph-name="uni04F2" unicode="&#x4f2;" horiz-adv-x="529" 
d="M172 0l52 131l-226 569h34l210 -524l209 524h35l-280 -700h-34zM316 815l-49 -78h-33l49 78h33zM254 815l-49 -78h-33l49 78h33z" />
    <glyph glyph-name="uni04F3" unicode="&#x4f3;" horiz-adv-x="452" 
d="M379 701v-589q0 -72 -27.5 -136t-75 -112t-111.5 -75.5t-136 -27.5v33q49 0 95.5 14.5t85.5 41.5t69 65t47 85q-68 2 -127 29.5t-103.5 73.5t-70 106t-25.5 128v364h33v-358q0 -64 24 -119.5t65.5 -97t97 -65t119.5 -23.5q8 35 8 74v589h32zM276 815l-49 -78h-33l49 78
h33zM214 815l-49 -78h-33l49 78h33z" />
    <glyph glyph-name="uni04F4" unicode="&#x4f4;" horiz-adv-x="457" 
d="M351 0h32l-1 700h-32v-232q-3 -25 -17.5 -43.5t-35 -31t-46 -18.5t-51.5 -5q-34 1 -62.5 14t-49 34.5t-32 51.5t-11.5 65v165h-32v-167q0 -42 14 -77.5t39.5 -61t60.5 -40t77 -14.5q42 -1 81 13.5t65 42.5zM183 814v-78h-31v78h31zM243 815v-79h-32v79h32z" />
    <glyph glyph-name="uni04F5" unicode="&#x4f5;" horiz-adv-x="459" 
d="M32 548q0 -35 10 -66t31 -54t54 -37t79 -15h115v322h33v-698h-33v344h-115q-56 0 -95.5 15.5t-64 42.5t-35.5 62t-11 74v160h32v-150zM164 814v-78h-31v78h31zM224 815v-79h-32v79h32z" />
    <glyph glyph-name="uni04F8" unicode="&#x4f8;" horiz-adv-x="478" 
d="M32 700v-172q59 -3 108 -23.5t83.5 -55.5t53.5 -82.5t19 -104.5q0 -54 -21 -102t-57 -84t-84 -56.5t-102 -20.5h-32v701h32zM32 31q47 0 89.5 18t74 49.5t50 73.5t18.5 90t-17 90.5t-47.5 74t-73.5 50t-94 18.5v-464zM380 700h32v-700h-32v700zM199 814v-78h-31v78h31z
M259 815v-79h-32v79h32z" />
    <glyph glyph-name="uni04F9" unicode="&#x4f9;" horiz-adv-x="363" 
d="M32 27q30 1 55.5 13t44 32t29 46.5t10.5 56.5q0 64 -37.5 105t-101.5 49v-302zM0 699h32v-343q38 -2 69.5 -16.5t54 -38t35 -56t12.5 -70.5q0 -36 -13.5 -68t-37 -56t-54.5 -37.5t-66 -13.5h-32v700v-1zM262 696h30v-700h-30v700zM134 814v-78h-31v78h31zM194 815v-79
h-32v79h32z" />
    <glyph glyph-name="endash" unicode="&#x2013;" horiz-adv-x="354" 
d="M2 277h259v-32l-259 1v31z" />
    <glyph glyph-name="emdash" unicode="&#x2014;" horiz-adv-x="474" 
d="M2 279h367l-1 -32l-366 1v31z" />
    <glyph glyph-name="quoteleft" unicode="&#x2018;" horiz-adv-x="128" 
d="M46 608q-45 42 -47 107h33q0 -49 36 -85z" />
    <glyph glyph-name="quoteright" unicode="&#x2019;" horiz-adv-x="131" 
d="M-1 630q36 36 36 85h33q-2 -65 -47 -107l-22 22v0z" />
    <glyph glyph-name="quotesinglbase" unicode="&#x201a;" horiz-adv-x="124" 
d="M-1 23q36 36 36 85h33q-2 -65 -47 -107l-22 22v0z" />
    <glyph glyph-name="quotedblleft" unicode="&#x201c;" horiz-adv-x="197" 
d="M46 608q-45 42 -47 107h33q0 -49 36 -85zM111 608q-45 42 -47 107h33q0 -49 36 -85z" />
    <glyph glyph-name="quotedblright" unicode="&#x201d;" horiz-adv-x="204" 
d="M64 630q36 36 36 85h33q-2 -65 -47 -107l-22 22v0zM-1 630q36 36 36 85h33q-2 -65 -47 -107l-22 22v0z" />
    <glyph glyph-name="quotedblbase" unicode="&#x201e;" horiz-adv-x="197" 
d="M64 23q36 36 36 85h33q-2 -65 -47 -107l-22 22v0zM-1 23q36 36 36 85h33q-2 -65 -47 -107l-22 22v0z" />
    <glyph glyph-name="dagger" unicode="&#x2020;" horiz-adv-x="379" 
d="M291 534v-33h-131v-504h-32l-1 504h-128v33h128v168h33v-168h131v0z" />
    <glyph glyph-name="daggerdbl" unicode="&#x2021;" horiz-adv-x="379" 
d="M292 502h-131v-299h131v-33h-130v-171h-32l-1 171h-128v33h128v299h-128v32h128l-1 168h33v-168h131v-32v0z" />
    <glyph glyph-name="bullet" unicode="&#x2022;" horiz-adv-x="215" 
d="M1 366q0 30 21.5 50.5t50.5 20.5t50 -20.5t21 -50.5q0 -29 -21 -50.5t-50 -21.5t-50.5 21.5t-21.5 50.5zM34 366q0 -16 11 -27.5t28 -11.5q16 0 27.5 11.5t11.5 27.5q0 17 -11.5 28.5t-27.5 11.5q-17 0 -28 -11.5t-11 -28.5z" />
    <glyph glyph-name="ellipsis" unicode="&#x2026;" horiz-adv-x="248" 
d="M0 79h33v-79h-33v79v0zM71 79h33v-79h-33v79v0zM142 79h33v-79h-33v79v0z" />
    <glyph glyph-name="perthousand" unicode="&#x2030;" horiz-adv-x="1185" 
d="M519 751h46l-526 -751h-43zM177 642q0 22 8.5 42t23.5 34.5t34.5 23t42.5 8.5q22 0 41.5 -8.5t34.5 -23.5t23.5 -34.5t8.5 -41.5t-8.5 -42t-23.5 -35t-34.5 -23.5t-41.5 -8.5q-23 0 -42.5 8.5t-34.5 23.5t-23.5 34.5t-8.5 42.5zM212 642q0 -30 22 -52t52 -22t52 22t22 52
t-22 51.5t-52 21.5t-52 -21.5t-22 -51.5zM836 552q57 0 107 -22t88 -59.5t60 -87.5t22 -107t-22 -107.5t-59.5 -88t-88 -59.5t-107.5 -22q-63 0 -122 28q-58 -28 -119 -28q-57 0 -107.5 22t-88 60t-59 88t-21.5 107t22 107t59.5 87.5t87.5 59.5t107 22q32 0 62.5 -7
t58.5 -21q58 28 120 28zM595 35q21 0 42 3.5t41 9.5q-56 39 -87 99.5t-31 128.5t31.5 128.5t88.5 98.5q-20 8 -41.5 11t-43.5 3q-50 0 -94 -19t-77 -51.5t-52 -76.5t-19 -94t19 -94t52 -76.5t77 -51.5t94 -19zM716 485q-56 -32 -88.5 -88t-32.5 -121t32 -121t87 -89
q57 32 90 88t33 122q0 65 -32.5 121t-88.5 88zM836 34q50 0 94 19t76.5 52t51.5 77t19 94t-19 93.5t-52 76t-77 51.5t-93 19q-21 0 -41.5 -2.5t-40.5 -10.5q54 -40 86 -99.5t32 -127.5q0 -69 -32 -129t-88 -99q42 -14 84 -14z" />
    <glyph glyph-name="guilsinglleft" unicode="&#x2039;" horiz-adv-x="303" 
d="M208 555l22 -23l-184 -184q3 -4 13 -14l23.5 -23.5t29.5 -30t33 -32.5l85 -85l-22 -22l-208 207z" />
    <glyph glyph-name="guilsinglright" unicode="&#x203a;" horiz-adv-x="299" 
d="M23 142l-22 24l184 184l-184 184l22 23l207 -207z" />
    <glyph glyph-name="Euro" unicode="&#x20ac;" horiz-adv-x="667" 
d="M126 125q46 -47 104.5 -70.5t119.5 -23.5t119.5 23.5t104.5 70.5l23 -23q-51 -51 -115.5 -76.5t-131.5 -25.5t-131.5 25.5t-115.5 76.5q-50 49 -76.5 113t-26.5 135q0 70 26.5 133t76.5 113t113 76.5t133 26.5q71 0 135 -26.5t113 -76.5l-23 -23q-45 46 -103 69.5
t-122 23.5q-63 0 -120.5 -23.5t-102.5 -69.5q-46 -45 -69.5 -102.5t-23.5 -120.5q0 -23 3 -43t8 -40h202v-32h-193q5 -10 9 -19t9 -17h179v-33h-159q8 -11 16 -21t19 -20z" />
    <glyph glyph-name="afii61352" unicode="&#x2116;" horiz-adv-x="696" 
d="M283 700v-700h-33v385l-218 234v-619h-32v700l250 -267v267h33zM608 372h-252v32h252v-32zM376 594q0 21 8 39.5t22 32.5t32.5 22t39.5 8t39.5 -8t32.5 -22t22 -32.5t8 -39.5t-8 -39.5t-22 -32.5t-32.5 -22t-39.5 -8t-39.5 8t-32.5 22t-22 32.5t-8 39.5zM409 594
q0 -29 20 -49t49 -20t49 20t20 49t-20 49t-49 20t-49 -20t-20 -49z" />
    <glyph glyph-name="trademark" unicode="&#x2122;" horiz-adv-x="380" 
d="M278 480v139l-51 -55l-50 55v-139h-33v222l83 -89l84 90v-223h-33zM119 701v-33h-43v-188h-33v188h-44v33h120v0z" />
    </font>
</defs>
</svg>
