<?xml version="1.0" encoding="iso-8859-1"?>
<!-- Generator: Adobe Illustrator 19.0.0, SVG Export Plug-In . SVG Version: 6.00 Build 0)  -->
<svg xmlns="http://www.w3.org/2000/svg" xmlns:xlink="http://www.w3.org/1999/xlink" version="1.1" id="Layer_1" x="0px" y="0px" viewBox="0 0 512 512" style="enable-background:new 0 0 512 512;" xml:space="preserve" width="50px" height="50px">
<g>
	<g>
		<rect x="319.54" y="188.614" width="15.673" height="15.674" fill="#FFFFFF"/>
	</g>
</g>
<g>
	<g>
		<path d="M366.017,230.933V110.189C366.017,49.43,316.665,0,256,0S145.982,49.43,145.982,110.189v120.744H98.743v114.15h15.673    v-98.476h283.167v249.72H114.416V397.85H98.743V512h314.514V230.933H366.017z M350.344,230.933h-157.88V110.189    c0-35.099,28.502-63.655,63.536-63.655s63.536,28.556,63.536,63.655v60.141h15.673v-60.141c0-43.742-35.533-79.329-79.21-79.329    c-43.676,0-79.21,35.587-79.21,79.329v120.744h-15.135V110.189c0-52.116,42.324-94.515,94.345-94.515s94.344,42.399,94.344,94.515    V230.933z" fill="#FFFFFF"/>
	</g>
</g>
<g>
	<g>
		<rect x="98.743" y="363.363" width="15.673" height="15.673" fill="#FFFFFF"/>
	</g>
</g>
<g>
	<g>
		<path d="M255.999,312.198c-20.46,0-37.104,16.667-37.104,37.153c0,12.317,5.991,23.608,15.917,30.501v50.884h42.375v-50.884    c9.925-6.892,15.918-18.184,15.918-30.501C293.104,328.864,276.459,312.198,255.999,312.198z M265.765,368.468l-4.251,2.187    v44.407h-11.027v-44.407l-4.251-2.187c-7.197-3.702-11.667-11.027-11.667-19.117c0-11.845,9.614-21.48,21.431-21.48    c11.818,0,21.432,9.636,21.432,21.48C277.432,357.44,272.962,364.764,265.765,368.468z" fill="#FFFFFF"/>
	</g>
</g>
</svg>
